<svg width="525" height="598" viewBox="0 0 525 598" fill="none" xmlns="http://www.w3.org/2000/svg">
<path d="M0.289726 438.322C1.38041 432.959 3.56178 427.596 6.07036 422.671C7.27011 420.264 10.1059 418.622 12.1782 416.652C12.6145 419.716 13.487 422.781 13.487 425.845C13.378 428.91 12.3963 431.865 11.7419 434.929C12.3963 435.148 13.0507 435.367 13.7051 435.586C14.4686 434.272 15.2321 432.959 15.8865 431.536C17.8497 426.83 19.813 422.124 21.449 417.418C22.1034 415.667 22.5397 413.588 22.1034 411.836C21.1218 407.459 22.6488 405.489 27.1206 406.255C35.0826 407.568 43.0446 408.881 51.0066 410.195C51.2247 409.538 51.552 409.1 51.661 408.553C54.3877 390.933 60.4956 374.845 73.3657 361.93C74.3473 360.945 74.5654 358.975 74.8926 357.443C78.71 334.898 79.5825 312.243 79.2553 289.369C79.0372 272.515 80.1279 255.551 81.1095 238.697C81.982 223.593 89.9441 212.977 103.469 206.192C108.704 203.565 114.594 201.705 117.429 195.685C118.084 194.372 119.938 193.606 121.465 192.949C128.991 189.556 136.625 186.273 143.606 183.209C149.059 182.552 154.076 178.831 158.221 175.438C162.911 171.608 169.564 168.762 171.2 163.071C172.727 157.818 181.016 138.884 164.656 113.603C164.547 113.384 164.329 113.165 164.111 112.946C163.783 112.618 163.456 112.289 163.129 111.961C162.256 109.772 160.948 107.802 159.312 106.379C150.586 99.156 144.806 90.7288 148.732 78.5806C148.95 77.8145 148.732 76.7201 148.623 75.8445C143.715 48.8119 155.712 28.2365 174.254 10.835C183.852 1.75118 195.959 -2.40768 209.483 1.42285C214.173 2.73617 217.881 6.5667 223.444 6.01948C225.08 5.80059 227.37 7.77058 228.897 9.30279C244.712 24.9532 253.547 43.2303 249.839 66.3229C249.075 71.029 250.384 75.954 251.038 80.7695C251.584 85.0378 254.31 89.7439 253.22 93.3555C249.511 105.613 249.293 119.622 240.677 129.362C234.896 136.039 234.242 141.948 235.987 149.391C236.205 150.266 236.205 151.251 236.314 152.127C238.059 162.086 242.313 170.404 251.256 175.876C252.347 176.533 253.438 177.408 254.638 177.518C265.981 178.722 275.033 185.616 285.177 189.885C286.486 190.432 287.249 192.402 288.449 193.496C290.085 194.919 291.721 196.889 293.684 197.327C308.408 200.282 319.533 208.381 325.859 221.733C330.113 230.707 333.058 240.448 335.239 250.079C339.929 270.654 342.001 291.667 349.636 311.586C354.981 325.485 359.998 339.494 365.342 353.394C365.887 354.816 367.742 355.801 369.269 356.567C379.303 362.04 389.992 366.417 399.371 372.875C411.26 381.083 423.912 386.883 437.873 389.838C440.818 390.495 444.417 389.51 447.362 388.306C454.342 385.351 460.886 381.521 467.976 378.566C471.248 377.252 475.065 377.471 478.664 377.033C485.099 376.267 491.534 375.282 497.969 374.845C501.132 374.626 503.314 376.158 501.787 379.988C501.569 380.536 501.351 381.411 501.678 381.958C505.277 390.495 508.876 399.032 512.803 408.334C513.784 406.255 514.875 404.285 515.639 402.205C516.62 399.907 516.947 397.171 518.256 395.092C519.238 393.669 521.419 393.012 523.055 392.027C523.601 393.778 524.473 395.42 524.8 397.28C526 405.051 521.528 411.07 518.474 417.528C516.293 422.124 513.457 423.875 508.549 422.453C507.349 422.124 505.713 422.562 504.404 423.109C502.332 423.985 500.369 425.079 498.406 426.064C494.588 427.925 490.444 429.238 487.063 431.646C483.9 433.944 481.173 434.929 477.574 433.287C473.102 431.208 468.63 429.238 464.158 427.487C453.033 423.219 441.908 419.279 430.783 415.12C430.565 415.667 430.238 416.214 430.02 416.761C431.22 418.075 432.419 419.388 433.619 420.701C440.818 428.362 445.398 437.227 445.835 447.953C446.816 473.672 434.71 492.168 413.769 505.411C407.006 509.679 399.59 512.853 392.718 516.793C380.939 523.469 369.269 530.254 357.816 536.821C361.852 539.448 365.56 541.855 369.378 544.044C371.777 545.467 374.395 546.452 376.903 547.547C380.284 549.079 385.411 549.517 386.829 552.034C390.319 558.053 392.282 564.948 394.354 571.734C394.791 573.047 393.373 575.783 392.064 576.549C385.847 579.832 379.303 582.459 373.086 585.852C367.633 588.697 362.288 589.792 356.289 588.26C340.474 584.21 324.441 583.663 308.845 588.041C295.102 591.871 281.577 588.15 268.053 588.588C265.326 588.697 262.49 587.275 259.655 586.508C251.693 584.32 243.731 581.912 235.769 579.832C228.788 577.972 221.699 576.549 214.609 574.907C213.082 574.579 211.337 574.141 209.919 574.689C186.688 582.678 161.602 584.867 139.352 596.249C132.481 599.751 127.682 597.891 124.955 591.215C124.737 593.294 124.628 595.373 124.41 597.453C123.973 597.672 123.646 597.781 123.21 598C121.465 595.702 119.72 593.403 117.975 591.215C119.829 589.792 121.683 588.369 123.646 586.946C123.101 584.648 122.665 582.35 122.228 580.051C116.011 579.066 110.013 577.972 103.905 577.315C97.2517 576.549 91.471 573.704 87.7627 568.341C83.9453 562.65 80.237 556.63 77.8375 550.283C74.1291 540.323 69.3301 531.568 62.677 523.031C51.7701 508.913 43.2627 493.153 43.3718 474.219C43.3718 469.294 36.9368 464.479 32.1378 464.041C29.302 463.822 25.2664 462.399 24.0666 460.211C20.3583 453.644 15.2321 449.923 8.14267 448.5C1.59856 446.53 -0.910028 444.013 0.289726 438.322ZM489.353 396.843C489.789 396.624 490.117 396.514 490.553 396.295C490.771 393.122 491.098 389.838 491.316 386.664L490.117 385.461C488.153 386.993 486.081 388.525 484.118 389.948C485.863 392.246 487.608 394.544 489.353 396.843ZM274.706 456.489C277.978 455.614 281.905 455.395 285.177 453.753C314.08 438.76 344.51 427.596 374.504 415.229C375.376 414.901 376.249 414.244 377.994 413.15C369.378 410.961 361.852 408.881 354.108 407.24C340.802 404.613 332.84 395.967 325.096 385.351C308.19 361.821 301.755 334.788 295.865 307.318C295.429 305.348 294.884 303.268 294.338 301.298C294.011 301.298 293.684 301.298 293.357 301.298C292.048 305.567 290.739 309.835 289.539 314.213C286.922 323.734 282.668 332.161 274.815 338.509C273.288 339.713 272.198 342.449 272.089 344.529C271.979 351.205 272.416 357.99 272.634 364.666C272.852 372.546 272.307 380.317 267.726 387.212C266.962 388.306 266.744 389.948 266.744 391.37C266.526 413.15 268.38 434.71 274.706 456.489ZM102.378 434.382C107.504 423.219 113.612 411.07 113.067 395.42C104.232 412.165 91.471 423.547 78.1647 434.382H102.378Z" fill="#F4F6FA"/>
</svg>
