<svg width="25" height="25" viewBox="0 0 25 25" fill="none" xmlns="http://www.w3.org/2000/svg">
<path d="M8.36936 0.0876675C7.96897 0.229269 7.57835 0.488058 7.27561 0.820089C6.98264 1.13259 6.85081 1.37185 6.67014 1.86989L6.56761 2.1531L6.24534 2.26052C5.801 2.41189 5.4055 2.66091 5.10276 2.98806C4.83421 3.27614 4.51682 3.83767 4.46311 4.12575C4.42405 4.33083 4.38499 4.36501 4.07737 4.43825C3.24241 4.64333 2.45139 5.449 2.22678 6.3279C2.15843 6.59646 2.14866 7.49001 2.14866 14.6482C2.14866 23.5056 2.12913 22.9343 2.45628 23.5593C2.65647 23.9353 3.16428 24.4431 3.54026 24.6433C4.16526 24.9705 3.75022 24.9509 10.2785 24.9509C15.552 24.9509 16.2209 24.9412 16.4602 24.8728C17.3489 24.6092 18.052 23.9304 18.3352 23.0564L18.4377 22.739L18.6916 22.6756C19.5608 22.4509 20.3176 21.7234 20.5666 20.864C20.6692 20.5174 20.6741 20.5125 20.8596 20.4832C21.4504 20.3806 22.2512 19.7459 22.5588 19.1404C22.8957 18.4763 22.8713 18.9744 22.8908 12.1336C22.9006 8.72048 22.8908 5.83962 22.8762 5.72243C22.8469 5.52224 22.7004 5.3611 20.4494 2.98806C19.136 1.60134 17.9494 0.361105 17.8225 0.229269L17.5832 -0.00022316H13.1008C8.94065 0.00465965 8.59886 0.00954247 8.36936 0.0876675ZM16.758 2.74392C16.7776 4.30153 16.7922 4.54568 16.8703 4.75564C17.0754 5.31228 17.4221 5.73708 17.8957 6.00564C18.3401 6.25954 18.6477 6.2986 20.3274 6.2986H21.8264L21.8166 12.2898L21.802 18.2859L21.6701 18.5642C21.5188 18.8963 21.2063 19.2136 20.8694 19.3845L20.6301 19.5066L14.844 19.5213C10.4592 19.531 9.00413 19.5213 8.83811 19.4773C8.55491 19.3992 8.14964 19.1355 7.97874 18.9109C7.9055 18.8133 7.79319 18.6082 7.72971 18.4617L7.61741 18.1883V10.2537V2.31911L7.7346 2.04079C7.86643 1.71853 8.00315 1.54275 8.29124 1.31814C8.74534 0.966574 8.56468 0.981222 12.8762 0.976339H16.7385L16.758 2.74392ZM19.2873 3.32009C19.9709 4.03298 20.6692 4.7654 20.8449 4.94607L21.1672 5.2781L19.9465 5.26345C18.8723 5.2488 18.7063 5.23903 18.5549 5.15603C18.2278 4.98513 18.0569 4.81911 17.9397 4.57009C17.8274 4.32595 17.8225 4.28689 17.8225 3.05153V1.782L17.9348 1.90407C17.9983 1.97243 18.6086 2.6072 19.2873 3.32009ZM6.67991 18.7009C6.83616 19.1306 7.00218 19.409 7.29514 19.7215C7.60764 20.0535 8.03245 20.3318 8.44261 20.4734L8.76487 20.5808L14.1506 20.5955C18.4719 20.6052 19.5315 20.6199 19.5315 20.6687C19.5315 20.7615 19.2727 21.1472 19.1116 21.2986C19.0334 21.3718 18.8479 21.489 18.7014 21.5672L18.4328 21.7039L12.6125 21.7185L6.7971 21.7283L6.51389 21.6258C6.15257 21.489 5.75706 21.1228 5.58128 20.7566L5.44456 20.4832V12.4509V4.41872L5.57639 4.15017C5.72776 3.84743 6.03538 3.52517 6.32346 3.3738L6.51878 3.27126L6.54319 10.825L6.56761 18.3836L6.67991 18.7009ZM4.35569 12.9978C4.37034 20.1853 4.37522 20.5467 4.46311 20.8006C4.78538 21.7527 5.43968 22.407 6.37229 22.7C6.58714 22.7634 7.28538 22.7781 11.9778 22.7879L17.3391 22.8074L17.2073 23.0515C17.0364 23.3592 16.7629 23.6082 16.4114 23.7742L16.1379 23.9011L10.4006 23.9158C6.06956 23.9256 4.6096 23.9158 4.44358 23.8718C3.83811 23.7107 3.35471 23.2078 3.22288 22.6023C3.18382 22.407 3.17405 20.2732 3.18382 14.4773L3.19846 6.61599L3.33518 6.33767C3.49632 6.01052 3.77952 5.71267 4.06761 5.57107C4.17991 5.51247 4.28733 5.46853 4.30686 5.46853C4.32639 5.46853 4.35081 8.8572 4.35569 12.9978Z" fill="#516FF6"/>
<path d="M16.499 6.38672C16.3964 6.43067 11.9043 10.8789 11.8017 11.04C11.7236 11.1621 10.8545 13.8672 10.8398 14.0381C10.8056 14.3896 11.0009 14.6484 11.3037 14.6484C11.4013 14.6484 12.1435 14.4385 12.9541 14.1846L14.4287 13.7207L16.7138 11.4404C18.081 10.0781 19.0332 9.08691 19.0771 8.98926C19.2089 8.67676 19.1552 8.59863 18.0713 7.5C16.9775 6.3916 16.7968 6.26465 16.499 6.38672ZM17.1875 9.45801C16.8261 9.8291 16.0009 10.6641 15.3564 11.3135L14.1845 12.5L13.5888 11.9043L12.9882 11.3037L14.8291 9.46289L16.6748 7.61719L17.2607 8.20313L17.8466 8.78906L17.1875 9.45801ZM12.6855 13.1689C12.4121 13.252 12.1777 13.3203 12.1728 13.3105C12.163 13.3008 12.2265 13.0713 12.3144 12.7979L12.4707 12.2998L12.8271 12.6563L13.1836 13.0078L12.6855 13.1689Z" fill="#516FF6"/>
<path d="M10.4201 16.4063C10.0636 16.5527 10.0099 17.041 10.3224 17.2949C10.4201 17.373 10.7228 17.3828 14.7365 17.3828H19.0529L19.1945 17.2412C19.3947 17.041 19.3947 16.7627 19.1945 16.543L19.0529 16.3818L14.7853 16.3721C12.4416 16.3672 10.4738 16.3818 10.4201 16.4063Z" fill="#516FF6"/>
</svg>
