<svg width="25" height="25" viewBox="0 0 25 25" fill="none" xmlns="http://www.w3.org/2000/svg">
<path d="M8.36912 0.0881557C7.96873 0.229757 7.5781 0.488546 7.27537 0.820578C6.9824 1.13308 6.85056 1.37234 6.6699 1.87038L6.56736 2.15359L6.2451 2.26101C5.80076 2.41237 5.40525 2.6614 5.10252 2.98855C4.83396 3.27663 4.51658 3.83816 4.46287 4.12624C4.42381 4.33132 4.38474 4.3655 4.07713 4.43874C3.24217 4.64382 2.45115 5.44948 2.22654 6.32839C2.15818 6.59694 2.14842 7.4905 2.14842 14.6487C2.14842 23.5061 2.12888 22.9348 2.45603 23.5598C2.65623 23.9358 3.16404 24.4436 3.54002 24.6438C4.16502 24.971 3.74998 24.9514 10.2783 24.9514C15.5517 24.9514 16.2207 24.9417 16.4599 24.8733C17.3486 24.6096 18.0517 23.9309 18.3349 23.0569L18.4375 22.7395L18.6914 22.676C19.5605 22.4514 20.3174 21.7239 20.5664 20.8645C20.6689 20.5178 20.6738 20.513 20.8594 20.4837C21.4502 20.3811 22.251 19.7464 22.5586 19.1409C22.8955 18.4768 22.8711 18.9749 22.8906 12.1341C22.9004 8.72097 22.8906 5.84011 22.876 5.72292C22.8467 5.52273 22.7002 5.36159 20.4492 2.98855C19.1357 1.60183 17.9492 0.361593 17.8222 0.229757L17.583 0.000265121H13.1006C8.94041 0.00514793 8.59861 0.0100307 8.36912 0.0881557ZM16.7578 2.74441C16.7773 4.30202 16.792 4.54616 16.8701 4.75612C17.0752 5.31277 17.4219 5.73757 17.8955 6.00612C18.3398 6.26003 18.6474 6.29909 20.3271 6.29909H21.8261L21.8164 12.2903L21.8017 18.2864L21.6699 18.5647C21.5185 18.8967 21.206 19.2141 20.8691 19.385L20.6299 19.5071L14.8437 19.5217C10.459 19.5315 9.00388 19.5217 8.83787 19.4778C8.55467 19.3997 8.14939 19.136 7.97849 18.9114C7.90525 18.8137 7.79295 18.6087 7.72947 18.4622L7.61717 18.1887V10.2542V2.3196L7.73435 2.04128C7.86619 1.71902 8.00291 1.54323 8.29099 1.31862C8.7451 0.967062 8.56443 0.98171 12.876 0.976828H16.7383L16.7578 2.74441ZM19.2871 3.32058C19.9707 4.03347 20.6689 4.76589 20.8447 4.94655L21.167 5.27859L19.9463 5.26394C18.872 5.24929 18.706 5.23952 18.5547 5.15652C18.2275 4.98562 18.0566 4.8196 17.9394 4.57058C17.8271 4.32644 17.8222 4.28737 17.8222 3.05202V1.78249L17.9345 1.90456C17.998 1.97292 18.6084 2.60769 19.2871 3.32058ZM6.67967 18.7014C6.83592 19.1311 7.00193 19.4094 7.2949 19.7219C7.6074 20.054 8.0322 20.3323 8.44236 20.4739L8.76463 20.5813L14.1504 20.596C18.4717 20.6057 19.5312 20.6204 19.5312 20.6692C19.5312 20.762 19.2724 21.1477 19.1113 21.2991C19.0332 21.3723 18.8476 21.4895 18.7011 21.5676L18.4326 21.7044L12.6123 21.719L6.79685 21.7288L6.51365 21.6262C6.15232 21.4895 5.75681 21.1233 5.58103 20.7571L5.44431 20.4837V12.4514V4.41921L5.57615 4.15066C5.72752 3.84792 6.03513 3.52566 6.32322 3.37429L6.51853 3.27175L6.54295 10.8255L6.56736 18.3841L6.67967 18.7014ZM4.35545 12.9983C4.3701 20.1858 4.37498 20.5471 4.46287 20.801C4.78513 21.7532 5.43943 22.4075 6.37205 22.7005C6.58689 22.7639 7.28513 22.7786 11.9775 22.7884L17.3388 22.8079L17.207 23.052C17.0361 23.3596 16.7627 23.6087 16.4111 23.7747L16.1377 23.9016L10.4004 23.9163C6.06931 23.926 4.60935 23.9163 4.44334 23.8723C3.83787 23.7112 3.35447 23.2083 3.22263 22.6028C3.18357 22.4075 3.17381 20.2737 3.18357 14.4778L3.19822 6.61648L3.33494 6.33816C3.49607 6.01101 3.77927 5.71316 4.06736 5.57155C4.17967 5.51296 4.28709 5.46902 4.30662 5.46902C4.32615 5.46902 4.35056 8.85769 4.35545 12.9983Z" fill="#EB5AEB"/>
<path d="M17 8.5H11" stroke="#EB5AEB" stroke-linecap="round" stroke-linejoin="round"/>
<path d="M18 12H11" stroke="#EB5AEB" stroke-linecap="round" stroke-linejoin="round"/>
<path d="M19 15.5H11" stroke="#EB5AEB" stroke-linecap="round" stroke-linejoin="round"/>
<path d="M12.6667 5H11.8333H11" stroke="#EB5AEB" stroke-linecap="round" stroke-linejoin="round"/>
</svg>
