<svg width="35" height="31" viewBox="0 0 35 31" fill="none" xmlns="http://www.w3.org/2000/svg">
<path d="M35 28.52C35 29.326 34.7117 29.9408 34.1352 30.3645C33.5587 30.7882 32.8512 31 32.0126 31H2.98742C2.14885 31 1.4413 30.783 0.86478 30.349C0.28826 29.915 0 29.3053 0 28.52C0 27.9 0.188679 27.2697 0.566038 26.629L15.0629 1.705C15.7547 0.568333 16.5723 0 17.5157 0C18.4591 0 19.2558 0.568333 19.9057 1.705L34.434 26.66C34.8113 27.3213 35 27.9413 35 28.52ZM19.6855 12.679V8.153H15.3145V12.679C15.3145 12.9683 15.3354 13.2422 15.3774 13.5005C15.4193 13.7588 15.4769 14.0482 15.5503 14.3685C15.6237 14.6888 15.6813 14.9627 15.7233 15.19L16.5409 20.212H18.3962L19.2453 15.19C19.2872 14.9833 19.3501 14.7147 19.434 14.384C19.5178 14.0533 19.5807 13.7588 19.6226 13.5005C19.6646 13.2422 19.6855 12.9683 19.6855 12.679ZM19.6855 24.676C19.6855 24.0767 19.4707 23.5703 19.0409 23.157C18.6111 22.7437 18.0922 22.537 17.4843 22.537C16.8973 22.537 16.3889 22.7437 15.9591 23.157C15.5294 23.5703 15.3145 24.0767 15.3145 24.676C15.3145 25.2753 15.5294 25.7868 15.9591 26.2105C16.3889 26.6342 16.8973 26.846 17.4843 26.846C18.0922 26.846 18.6111 26.6342 19.0409 26.2105C19.4707 25.7868 19.6855 25.2753 19.6855 24.676Z" fill="#516FF6"/>
</svg>
