<svg width="13" height="15" viewBox="0 0 13 15" fill="none" xmlns="http://www.w3.org/2000/svg">
<mask id="mask0_4034:2006" style="mask-type:alpha" maskUnits="userSpaceOnUse" x="0" y="0" width="13" height="13">
<path fill-rule="evenodd" clip-rule="evenodd" d="M0 0.666992H12.3313V12.2323H0V0.666992Z" fill="white"/>
</mask>
<g mask="url(#mask0_4034:2006)">
<path fill-rule="evenodd" clip-rule="evenodd" d="M6.16464 1.66699C3.83464 1.66699 2.21064 3.49233 2.21064 5.13033C2.21064 6.51633 1.82597 7.15699 1.48597 7.72233C1.2133 8.17633 0.997972 8.53499 0.997972 9.31432C1.1093 10.5717 1.93931 11.2323 6.16464 11.2323C10.3666 11.2323 11.2226 10.5423 11.3333 9.27099C11.3313 8.53499 11.116 8.17633 10.8433 7.72233C10.5033 7.15699 10.1186 6.51633 10.1186 5.13033C10.1186 3.49233 8.49464 1.66699 6.16464 1.66699ZM6.16468 12.2323C3.04734 12.2323 0.230009 12.0123 8.90312e-06 9.35699C-0.0019911 8.25833 0.333342 7.69966 0.629342 7.20766C0.928676 6.70899 1.21068 6.23899 1.21068 5.13033C1.21068 2.97499 3.20134 0.666992 6.16468 0.666992C9.12801 0.666992 11.1187 2.97499 11.1187 5.13033C11.1187 6.23899 11.4007 6.70899 11.7 7.20766C11.996 7.69966 12.3313 8.25833 12.3313 9.31432C12.0987 12.0123 9.28201 12.2323 6.16468 12.2323Z" fill="#516FF6"/>
</g>
<path fill-rule="evenodd" clip-rule="evenodd" d="M6.13218 15.0004H6.13085C5.38351 14.9997 4.67618 14.6704 4.13951 14.0724C3.95485 13.8677 3.97151 13.5511 4.17685 13.3671C4.38218 13.1817 4.69818 13.1984 4.88285 13.4044C5.22818 13.7891 5.67151 14.0004 6.13151 14.0004H6.13218C6.59418 14.0004 7.03951 13.7891 7.38551 13.4037C7.57085 13.1991 7.88685 13.1824 8.09151 13.3671C8.29685 13.5517 8.31351 13.8684 8.12885 14.0731C7.59018 14.6711 6.88151 15.0004 6.13218 15.0004Z" fill="#516FF6"/>
</svg>
