<svg width="15" height="15" viewBox="0 0 15 15" fill="none" xmlns="http://www.w3.org/2000/svg">
<path d="M8.57687 11.6587L6.32062 13.9144C4.87313 15.3612 2.53125 15.3612 1.08438 13.9144C0.384375 13.2156 0 12.2856 0 11.2969C0 10.3081 0.384375 9.37813 1.08375 8.67875L4.125 5.63813C5.59688 4.16625 7.94625 4.22438 9.36063 5.63813C9.64375 5.92125 9.86687 6.24625 10.0413 6.5925L9.04562 7.5875C8.93312 7.20438 8.73312 6.84438 8.44312 6.555C7.53813 5.65 5.98687 5.61125 5.04375 6.55438L5.04313 6.55563L2.00125 9.59625C1.06375 10.5331 1.06375 12.0594 2.00125 12.9963C2.94937 13.9444 4.475 13.9263 5.4025 12.9963L6.91813 11.4813C7.53875 11.6588 8.0375 11.6906 8.57687 11.6587ZM8.6775 1.085L6.44375 3.32C6.97313 3.28875 7.47813 3.32 8.10188 3.49688L9.5975 2.00375C10.5337 1.065 12.06 1.06625 12.9975 2.00313C13.9456 2.95188 13.9262 4.4775 12.9975 5.40438L9.97812 8.42375L9.97625 8.425C9.0775 9.32312 7.5475 9.395 6.57687 8.42375C6.28125 8.1275 6.08625 7.7725 5.97938 7.39688L5.92688 7.43938L4.97875 8.38625C5.15375 8.73375 5.37563 9.05813 5.65875 9.34125C7.06187 10.7444 9.41125 10.825 10.895 9.34125L13.915 6.32188C15.3612 4.87438 15.3625 2.53313 13.9144 1.08625C12.4663 -0.364375 10.1225 -0.359375 8.6775 1.085Z" fill="#516FF6"/>
</svg>
