<svg width="27" height="30" viewBox="0 0 27 30" fill="none" xmlns="http://www.w3.org/2000/svg">
<path d="M3.77778 12.2V1H16.7407M3.77778 12.2H1M3.77778 12.2H25.0741M1 12.2H25.0741M1 12.2V24.8H3.77778M25.0741 8L17.6667 1H16.7407M25.0741 8V10.8V12.2M25.0741 8H16.7407V1M25.0741 12.2H26V24.8H24.1481M3.77778 24.8V29H24.1481V24.8M3.77778 24.8H24.1481" stroke="#D3E2FF" stroke-width="1.5"/>
<path d="M6.09375 21.5336V16.0659C6.09375 15.9928 6.15297 15.9336 6.22603 15.9336H7.19153C8.11937 15.9336 8.87153 16.6858 8.87153 17.6136V17.6136C8.87153 18.5414 8.11937 19.2936 7.19153 19.2936H6.64931" stroke="#D3E2FF" stroke-width="1.2" stroke-linecap="round"/>
<path d="M11.6484 21.0847V16.1158C11.6484 16.0152 11.73 15.9336 11.8307 15.9336H12.6335C13.9062 15.9336 15.0015 16.8329 15.2492 18.0813C15.3172 18.4239 15.3172 18.7766 15.2492 19.1192C15.0015 20.3676 13.9062 21.2669 12.6335 21.2669H11.8307C11.73 21.2669 11.6484 21.1853 11.6484 21.0847Z" stroke="#D3E2FF" stroke-width="1.2" stroke-linecap="round"/>
<path d="M18.1328 21.5336V18.7336M20.9106 15.9336H18.6328C18.3567 15.9336 18.1328 16.1575 18.1328 16.4336V17.6136V18.7336M18.1328 18.7336H20.355" stroke="#D3E2FF" stroke-width="1.2" stroke-linecap="round"/>
</svg>
