<svg width="15" height="20" viewBox="0 0 15 20" fill="none" xmlns="http://www.w3.org/2000/svg">
<g clip-path="url(#clip0_4462_15860)">
<path d="M9.33333 1.66699H2.66667C2.22464 1.66699 1.80072 1.84259 1.48816 2.15515C1.17559 2.46771 1 2.89163 1 3.33366V16.667C1 17.109 1.17559 17.5329 1.48816 17.8455C1.80072 18.1581 2.22464 18.3337 2.66667 18.3337H12.6667C13.1087 18.3337 13.5326 18.1581 13.8452 17.8455C14.1577 17.5329 14.3333 17.109 14.3333 16.667V6.66699L9.33333 1.66699Z" stroke="#516FF6" stroke-width="1.5" stroke-linecap="round" stroke-linejoin="round"/>
<path d="M9.3335 1.66699V6.66699H14.3335" stroke="#516FF6" stroke-width="1.5" stroke-linecap="round" stroke-linejoin="round"/>
<path d="M11.0002 10.834H4.3335" stroke="#516FF6" stroke-width="1.5" stroke-linecap="round" stroke-linejoin="round"/>
<path d="M11.0002 14.167H4.3335" stroke="#516FF6" stroke-width="1.5" stroke-linecap="round" stroke-linejoin="round"/>
<path d="M6.00016 7.5H5.16683H4.3335" stroke="#516FF6" stroke-width="1.5" stroke-linecap="round" stroke-linejoin="round"/>
</g>
<defs>
<clipPath id="clip0_4462_15860">
<rect width="15" height="20" fill="white"/>
</clipPath>
</defs>
</svg>
