<svg width="18" height="16" viewBox="0 0 18 16" fill="none" xmlns="http://www.w3.org/2000/svg">
<path d="M12.0001 7.73622C11.9281 7.49622 12.0481 7.23223 12.2881 7.16023C12.5281 7.08823 12.7921 7.20822 12.8641 7.44823C12.9361 7.68822 12.8161 7.95223 12.5761 8.02423C12.5281 8.04823 12.4801 8.04823 12.4321 8.04823C12.2401 8.07223 12.0721 7.92822 12.0001 7.73622ZM17.3281 6.70423C17.3281 7.71223 16.5121 8.50423 15.5281 8.50423C14.5201 8.50423 13.7281 7.68823 13.7281 6.70423C13.7281 5.72023 14.5441 4.90423 15.5281 4.90423C16.5121 4.90423 17.3281 5.69623 17.3281 6.70423ZM16.4161 6.70423C16.4161 6.20023 16.0081 5.79223 15.5041 5.79223C15.0001 5.79223 14.5921 6.20023 14.5921 6.70423C14.5921 7.20823 15.0001 7.61622 15.5041 7.61622C16.0321 7.61622 16.4161 7.20823 16.4161 6.70423ZM5.49612 8.02423C5.54412 8.02423 5.59212 8.02423 5.64012 8.00023C5.88012 7.92823 6.00012 7.66423 5.92812 7.42423C5.85612 7.18423 5.59212 7.06422 5.35212 7.13622C5.11212 7.20822 4.99212 7.47223 5.06412 7.71223C5.13612 7.90423 5.30412 8.02423 5.49612 8.02423ZM14.7361 14.1922C14.7361 15.2002 13.9201 15.9922 12.9361 15.9922C11.9521 15.9922 11.1361 15.1762 11.1361 14.1922C11.1361 13.7362 11.3041 13.3522 11.5681 13.0162L9.88812 10.6642C9.62412 10.7842 9.31212 10.8322 9.02412 10.8322C8.73612 10.8322 8.42412 10.7602 8.16012 10.6402L6.48012 13.0162C6.72012 13.3282 6.86412 13.7122 6.86412 14.1442C6.86412 15.1522 6.04812 15.9442 5.06412 15.9442C4.05612 15.9442 3.26412 15.1282 3.26412 14.1442C3.26412 13.1362 4.08012 12.3442 5.06412 12.3442C5.30412 12.3442 5.54412 12.3922 5.76012 12.4882L7.44012 10.1362C7.00812 9.68022 6.81612 9.05623 6.88812 8.48023C6.91212 8.16823 7.00812 7.88022 7.15212 7.61622C7.24812 7.44822 7.36812 7.28022 7.51212 7.13622C7.82412 6.82422 8.20812 6.63223 8.59212 6.56023V3.58423C7.82412 3.39223 7.24812 2.67223 7.24812 1.83223C7.24812 0.824227 8.06412 0.0322266 9.04812 0.0322266C10.0561 0.0322266 10.8481 0.848227 10.8481 1.83223C10.8481 2.67223 10.2721 3.36823 9.50412 3.58423V6.56023C9.91212 6.65623 10.2721 6.84822 10.5841 7.13622C10.9921 7.54422 11.2321 8.09622 11.2321 8.67222C11.2321 9.22422 11.0161 9.72822 10.6561 10.1362L12.3361 12.4882C12.5281 12.4162 12.7441 12.3682 12.9841 12.3682C13.9201 12.3682 14.7361 13.1842 14.7361 14.1922ZM5.95212 14.1442C5.95212 13.6402 5.54412 13.2322 5.04012 13.2322C4.53612 13.2322 4.12812 13.6402 4.12812 14.1442C4.12812 14.6482 4.53612 15.0562 5.04012 15.0562C5.54412 15.0562 5.95212 14.6482 5.95212 14.1442ZM9.02412 2.72023C9.52812 2.72023 9.93612 2.31223 9.93612 1.80823C9.93612 1.30423 9.52812 0.896224 9.02412 0.896224C8.52012 0.896224 8.11212 1.30423 8.11212 1.80823C8.11212 2.31223 8.52012 2.72023 9.02412 2.72023ZM9.91212 7.76023C9.67212 7.52023 9.33612 7.40023 9.02412 7.40023C8.68812 7.40023 8.37612 7.52023 8.13612 7.76023C7.63212 8.26423 7.63212 9.05623 8.13612 9.56023C8.64012 10.0642 9.43212 10.0642 9.93612 9.56023C10.4161 9.05623 10.4161 8.26423 9.91212 7.76023ZM13.8241 14.1922C13.8241 13.6882 13.4161 13.2802 12.9121 13.2802C12.4081 13.2802 12.0001 13.6882 12.0001 14.1922C12.0001 14.6962 12.4081 15.1042 12.9121 15.1042C13.4161 15.1042 13.8241 14.6722 13.8241 14.1922ZM4.27212 6.65622C4.27212 7.66422 3.45612 8.45622 2.47212 8.45622C1.48812 8.45622 0.672119 7.64022 0.672119 6.65622C0.672119 5.64822 1.48812 4.85622 2.47212 4.85622C3.45612 4.85622 4.27212 5.64822 4.27212 6.65622ZM3.38412 6.65622C3.38412 6.15222 2.97612 5.74423 2.47212 5.74423C1.96812 5.74423 1.56012 6.15222 1.56012 6.65622C1.56012 7.16022 1.96812 7.56822 2.47212 7.56822C2.97612 7.56822 3.38412 7.13622 3.38412 6.65622Z" fill="white"/>
</svg>
