<svg width="20" height="20" viewBox="0 0 20 20" fill="none" xmlns="http://www.w3.org/2000/svg">
<g clip-path="url(#clip0_4960_13553)">
<path fill-rule="evenodd" clip-rule="evenodd" d="M18.5714 5.30537H16.3853C16.6841 4.83801 16.8432 4.31224 16.8479 3.77675C16.8075 1.91184 15.0476 0.428358 12.9163 0.462491C11.8099 0.460881 10.753 0.86319 10.0001 1.57249C9.247 0.863223 8.18998 0.460926 7.08357 0.462491C4.95224 0.428358 3.19242 1.9118 3.15191 3.77669C3.15676 4.31218 3.31588 4.83795 3.61453 5.30537H1.42873C0.640666 5.30735 0.00235387 5.86581 0 6.55537V8.87847C0.00235387 9.56802 0.640666 10.1265 1.42873 10.1285H8.97914V7.71673C8.98125 7.22492 9.43748 6.82721 9.99955 6.82721C10.5616 6.82721 11.0179 7.22492 11.02 7.71673V10.1285H18.5714C19.3594 10.1265 19.9976 9.56799 19.9998 8.87849V6.55537C19.9976 5.86586 19.3594 5.30739 18.5714 5.30537ZM8.97441 5.30519H7.08357C6.08007 5.33758 5.23517 4.65457 5.19279 3.77669C5.23526 2.89885 6.08011 2.21589 7.08357 2.2482C8.08705 2.21587 8.93193 2.89884 8.97441 3.77669V5.30519ZM12.9163 5.30519H11.0254V3.77669C11.1036 2.91363 11.9268 2.24814 12.9163 2.24814C13.9057 2.24814 14.729 2.91363 14.8071 3.77669C14.7647 4.65459 13.9198 5.33761 12.9163 5.30519ZM8.97967 11.9158V19.5383H4.24322C3.50671 19.6259 2.76475 19.4148 2.22807 18.9648C1.69138 18.5149 1.41859 17.8753 1.48717 17.2277V11.9158H8.97967ZM18.5127 11.9157V17.2276C18.5813 17.8753 18.3084 18.5149 17.7717 18.9648C17.235 19.4147 16.493 19.6259 15.7564 19.5382H11.0205V11.9157H18.5127Z" fill="#E25241"/>
</g>
<defs>
<clipPath id="clip0_4960_13553">
<rect width="20" height="20" fill="white"/>
</clipPath>
</defs>
</svg>
