<svg width="16" height="16" viewBox="0 0 16 16" fill="none" xmlns="http://www.w3.org/2000/svg">
<mask id="mask0_4123:2001" style="mask-type:alpha" maskUnits="userSpaceOnUse" x="1" y="2" width="14" height="14">
<path fill-rule="evenodd" clip-rule="evenodd" d="M1.33325 2H14.9816V15.0007H1.33325V2Z" fill="white"/>
</mask>
<g mask="url(#mask0_4123:2001)">
<path fill-rule="evenodd" clip-rule="evenodd" d="M2.549 8.08206C3.48366 10.9901 7.17633 13.3414 8.15767 13.9234C9.14233 13.3354 12.8617 10.9581 13.7663 8.08473C14.3603 6.22739 13.809 3.87473 11.6183 3.16873C10.557 2.82806 9.319 3.03539 8.46433 3.69673C8.28567 3.83406 8.03767 3.83673 7.85767 3.70073C6.95233 3.02006 5.76967 2.82073 4.69167 3.16873C2.50433 3.87406 1.955 6.22673 2.549 8.08206ZM8.15831 15.0007C8.07565 15.0007 7.99365 14.9807 7.91898 14.9401C7.71031 14.8261 2.79498 12.1167 1.59698 8.38741C1.59631 8.38741 1.59631 8.38674 1.59631 8.38674C0.844312 6.03875 1.68165 3.08808 4.38498 2.21675C5.65431 1.80608 7.03765 1.98675 8.15631 2.69275C9.24031 2.00741 10.6803 1.81808 11.9243 2.21675C14.6303 3.08941 15.4703 6.03941 14.719 8.38674C13.5596 12.0734 8.60831 14.8234 8.39831 14.9387C8.32365 14.9801 8.24098 15.0007 8.15831 15.0007Z" fill="#516FF6"/>
</g>
</svg>
