<svg width="16" height="15" viewBox="0 0 16 15" fill="none" xmlns="http://www.w3.org/2000/svg">
<path d="M5.43845 7.49434C5.43845 6.12237 6.54687 5.01424 7.9192 5.01424C9.29152 5.01424 10.3999 6.12237 10.3999 7.49434C10.3999 8.86631 9.29152 9.97443 7.9192 9.97443C6.54687 9.97443 5.43845 8.86631 5.43845 7.49434ZM4.06612 7.49434C4.06612 9.60506 5.75514 11.2936 7.86641 11.2936C9.97768 11.2936 11.6667 9.60506 11.6667 7.49434C11.6667 5.38362 9.97768 3.69504 7.86641 3.69504C5.75514 3.69504 4.06612 5.38362 4.06612 7.49434ZM10.9805 3.53674C10.9805 4.01165 11.4028 4.4338 11.8778 4.4338C12.3529 4.4338 12.7751 4.01165 12.7751 3.53674C12.7751 3.06183 12.3529 2.63968 11.8778 2.63968C11.35 2.63968 10.9805 3.00906 10.9805 3.53674ZM4.91063 13.5099C4.17169 13.4571 3.80221 13.3516 3.5383 13.246C2.85214 12.9822 2.37712 12.5073 2.11321 11.8213C1.69095 10.7132 1.79652 5.33085 1.8493 4.4338C1.90208 3.58951 2.06042 2.79799 2.64102 2.21754C3.37997 1.47879 4.33003 1.10941 10.875 1.42602C11.7195 1.47879 12.5112 1.63709 13.0918 2.21754C13.8307 2.95629 14.2002 3.90611 13.8835 10.4493C13.8307 11.1881 13.7252 11.5575 13.6196 11.8213C13.039 13.6154 11.4556 13.8265 4.91063 13.5099ZM4.80506 0.106821C3.59108 0.159589 2.53545 0.476191 1.69094 1.32048C0.846435 2.16477 0.529752 3.22013 0.47697 4.4338C0.424188 5.17255 0.265833 10.8715 0.846432 12.349C1.2159 13.3516 2.00763 14.1431 3.01049 14.5125C3.48552 14.6708 4.01334 14.8291 4.80506 14.8819C11.4028 15.1985 13.8835 15.0402 14.9392 12.349C15.0975 11.8741 15.2559 11.3464 15.3086 10.5549C15.6253 3.90611 15.2558 2.48137 14.0947 1.32048C13.1446 0.370655 12.0889 -0.262555 4.80506 0.106821Z" fill="white" fill-opacity="0.5"/>
</svg>
