<svg width="10" height="3" viewBox="0 0 10 3" fill="none" xmlns="http://www.w3.org/2000/svg">
<path d="M1.694 2.154C1.442 2.154 1.22733 2.06533 1.05 1.888C0.872667 1.71067 0.784 1.496 0.784 1.244C0.784 0.992 0.872667 0.777333 1.05 0.6C1.22733 0.422667 1.442 0.334 1.694 0.334C1.95533 0.334 2.17 0.422667 2.338 0.6C2.51533 0.777333 2.604 0.992 2.604 1.244C2.604 1.496 2.51533 1.71067 2.338 1.888C2.17 2.06533 1.95533 2.154 1.694 2.154ZM5.0983 2.154C4.8463 2.154 4.63163 2.06533 4.4543 1.888C4.27696 1.71067 4.1883 1.496 4.1883 1.244C4.1883 0.992 4.27696 0.777333 4.4543 0.6C4.63163 0.422667 4.8463 0.334 5.0983 0.334C5.35963 0.334 5.5743 0.422667 5.7423 0.6C5.91963 0.777333 6.0083 0.992 6.0083 1.244C6.0083 1.496 5.91963 1.71067 5.7423 1.888C5.5743 2.06533 5.35963 2.154 5.0983 2.154ZM8.50259 2.154C8.25059 2.154 8.03593 2.06533 7.85859 1.888C7.68126 1.71067 7.59259 1.496 7.59259 1.244C7.59259 0.992 7.68126 0.777333 7.85859 0.6C8.03593 0.422667 8.25059 0.334 8.50259 0.334C8.76393 0.334 8.97859 0.422667 9.14659 0.6C9.32393 0.777333 9.41259 0.992 9.41259 1.244C9.41259 1.496 9.32393 1.71067 9.14659 1.888C8.97859 2.06533 8.76393 2.154 8.50259 2.154Z" fill="#697077"/>
</svg>
