<svg viewBox="0 0 25 30" fill="none" xmlns="http://www.w3.org/2000/svg">
<path d="M21.3235 11.0156H19.1154V6.19746C19.1154 2.78016 16.1467 0 12.4977 0C8.84877 0 5.88009 2.78016 5.88009 6.19746V11.0156H3.67647C1.64926 11.0156 0 12.5927 0 14.5313L0 26.4844C0 28.4229 1.64926 30 3.67647 30H21.3235C23.3507 30 25 28.4229 25 26.4844V14.5313C25 12.5927 23.3507 11.0156 21.3235 11.0156ZM8.33107 6.19746C8.33107 4.0725 10.2002 2.34375 12.4977 2.34375C14.7952 2.34375 16.6644 4.0725 16.6644 6.19746V11.0156H8.33107V6.19746ZM22.549 26.4844C22.549 27.1305 21.9993 27.6563 21.3235 27.6563H3.67647C3.00074 27.6563 2.45098 27.1305 2.45098 26.4844V14.5313C2.45098 13.8851 3.00074 13.3594 3.67647 13.3594H21.3235C21.9993 13.3594 22.549 13.8851 22.549 14.5313V26.4844Z" fill="#516FF6"/>
<path d="M12.5 16.7578C11.2479 16.7578 10.2328 17.7284 10.2328 18.9258C10.2328 19.6903 10.6471 20.3619 11.2722 20.7479V23.3203C11.2722 23.9675 11.8209 24.4922 12.4977 24.4922C13.1745 24.4922 13.7232 23.9675 13.7232 23.3203V20.7507C14.3509 20.3651 14.7672 19.6922 14.7672 18.9258C14.7672 17.7284 13.7521 16.7578 12.5 16.7578Z" fill="#516FF6"/>
</svg>
