<svg width="18" height="20" viewBox="0 0 18 20" fill="none" xmlns="http://www.w3.org/2000/svg">
<path d="M15.2213 7.50271H14.5328V5.1054C14.5328 2.24201 12.246 0 8.97541 0C5.70493 0 3.46724 2.28633 3.46724 5.1054V7.4806H2.77872C1.25418 7.4806 0.0246779 8.59047 0 9.98894V17.4917C0 18.8679 1.2295 19.9777 2.77872 20H15.2213C16.7458 20 17.9753 18.8901 18 17.4917V9.98854C18 8.61235 16.7458 7.50248 15.2213 7.50248V7.50271ZM4.84428 7.50271V5.1054C4.84428 2.97437 6.46727 1.24301 8.97532 1.24301C11.4589 1.24301 13.1556 2.92998 13.1556 5.1054V7.4806L4.84415 7.48044V7.50274L4.84428 7.50271ZM16.5983 17.4915C16.5983 18.1796 15.9836 18.7346 15.2213 18.7346H2.77876C2.01652 18.7346 1.40176 18.1796 1.40176 17.4915V9.98882C1.40176 9.30074 2.01652 8.74581 2.77876 8.74581H15.2213C15.9836 8.74581 16.5983 9.30074 16.5983 9.98882V17.4915ZM10.377 12.4971C10.377 12.9633 10.1065 13.3628 9.68852 13.5848H9.66399H9.68852V15.627C9.68852 15.9822 9.3688 16.2485 9 16.2485C8.60652 16.2485 8.31148 15.9599 8.31148 15.627V13.5848H8.33601H8.31148C7.89347 13.3628 7.62296 12.9633 7.62296 12.4971C7.62296 11.809 8.23771 11.2541 8.99996 11.2541C9.7622 11.2318 10.377 11.7868 10.377 12.4971H10.377Z" fill="white"/>
</svg>
