<?xml version="1.0" encoding="UTF-8" standalone="no"?>
<svg
   width="600.00299"
   height="359.008"
   viewBox="0 -140 600.00299 359.008"
   enable-background="new 0 0 780 500"
   version="1.1"
   xml:space="preserve"
   id="svg39"
   sodipodi:docname="MasterCard.svg"
   inkscape:version="1.2 (dc2aedaf03, 2022-05-15)"
   xmlns:inkscape="http://www.inkscape.org/namespaces/inkscape"
   xmlns:sodipodi="http://sodipodi.sourceforge.net/DTD/sodipodi-0.dtd"
   xmlns="http://www.w3.org/2000/svg"
   xmlns:svg="http://www.w3.org/2000/svg">
  <defs
     id="defs43" />
  <sodipodi:namedview
     id="namedview41"
     pagecolor="#ffffff"
     bordercolor="#000000"
     borderopacity="0.25"
     inkscape:showpageshadow="2"
     inkscape:pageopacity="0.0"
     inkscape:pagecheckerboard="0"
     inkscape:deskcolor="#d1d1d1"
     showgrid="false"
     inkscape:zoom="0.71163952"
     inkscape:cx="170.02991"
     inkscape:cy="248.01883"
     inkscape:window-width="1920"
     inkscape:window-height="1001"
     inkscape:window-x="-9"
     inkscape:window-y="-9"
     inkscape:window-maximized="1"
     inkscape:current-layer="svg39" />
  <path
     d="m 359.01,39.504 c 0,99.143 -80.371,179.5 -179.51,179.5 C 80.361,219.004 0,138.643 0,39.504 c 0,-99.133 80.362,-179.5 179.5,-179.5 99.137,0 179.51,80.371 179.51,179.5"
     fill="#d9222a"
     id="path27" />
  <path
     d="m 420.49,-140 c -46.379,0 -88.643,17.596 -120.5,46.467 -6.49,5.889 -12.548,12.237 -18.125,18.996 h 36.267 c 4.965,6.037 9.536,12.387 13.685,19.012 h -63.635 c -3.827,6.122 -7.281,12.469 -10.342,19.008 h 84.313 c 2.894,6.185 5.431,12.53 7.601,19.004 h -99.513 c -2.09,6.234 -3.832,12.58 -5.217,19.008 h 109.94 c 2.689,12.49 4.045,25.231 4.042,38.008 0,19.935 -3.254,39.112 -9.254,57.021 h -99.513 c 2.164,6.477 4.7,12.824 7.596,19.008 h 84.316 c -3.063,6.541 -6.519,12.889 -10.347,19.013 h -63.625 c 4.147,6.62 8.719,12.966 13.685,18.996 h 36.259 c -5.57,6.772 -11.63,13.127 -18.13,19.013 31.857,28.866 74.117,46.454 120.5,46.454 99.139,0 179.51,-80.361 179.51,-179.5 0,-99.129 -80.371,-179.5 -179.51,-179.5"
     fill="#ee9f2d"
     id="path29" />
  <path
     d="m 576.07,139.564 c 0,-3.199 2.592,-5.801 5.796,-5.801 3.204,0 5.796,2.602 5.796,5.801 0,3.199 -2.592,5.801 -5.796,5.801 -3.204,0 -5.796,-2.602 -5.796,-5.801 z m 5.796,4.408 c 2.434,-0.001 4.407,-1.974 4.408,-4.408 0,-2.432 -1.971,-4.402 -4.402,-4.404 h -0.006 c -2.429,-0.003 -4.4,1.963 -4.404,4.391 v 0.014 c -0.002,2.433 1.968,4.406 4.4,4.408 0.001,-0.001 0.003,-0.001 0.004,-0.001 z m -0.783,-1.86 h -1.187 v -5.096 h 2.149 c 0.45,0 0.908,0 1.305,0.254 0.413,0.279 0.646,0.771 0.646,1.279 0,0.571 -0.338,1.104 -0.884,1.312 l 0.938,2.25 h -1.315 l -0.779,-2.017 h -0.871 z m 0,-2.89 h 0.658 c 0.246,0 0.505,0.021 0.726,-0.1 0.195,-0.125 0.296,-0.359 0.296,-0.584 -0.005,-0.209 -0.112,-0.402 -0.288,-0.518 -0.207,-0.129 -0.536,-0.101 -0.758,-0.101 h -0.634 z m -443.5,-80.063 c -2.046,-0.238 -2.945,-0.301 -4.35,-0.301 -11.046,0 -16.638,3.787 -16.638,11.268 0,4.611 2.729,7.545 6.987,7.545 7.939,0 13.659,-7.559 14.001,-18.512 z m 14.171,32.996 h -16.146 l 0.371,-7.676 c -4.926,6.065 -11.496,8.949 -20.426,8.949 -10.563,0 -17.804,-8.25 -17.804,-20.229 0,-18.024 12.596,-28.541 34.217,-28.541 2.208,0 5.042,0.199 7.941,0.57 0.604,-2.441 0.763,-3.488 0.763,-4.801 0,-4.908 -3.396,-6.737 -12.5,-6.737 -9.533,-0.108 -17.396,2.271 -20.625,3.333 0.204,-1.229 2.7,-16.659 2.7,-16.659 9.712,-2.846 16.116,-3.917 23.325,-3.917 16.732,0 25.596,7.513 25.579,21.712 0.033,3.805 -0.597,8.5 -1.579,14.671 -1.691,10.734 -5.32,33.721 -5.816,39.325 z m -62.158,0 H 70.109 L 81.271,22.158 56.346,92.155 H 43.067 L 41.425,22.558 29.692,92.155 H 11.45 L 26.687,1.099 h 28.021 l 1.7,50.968 L 73.5,1.099 h 31.167 L 89.596,92.155 m 354.97,-32.996 c -2.037,-0.238 -2.941,-0.301 -4.342,-0.301 -11.041,0 -16.634,3.787 -16.634,11.268 0,4.611 2.726,7.545 6.983,7.545 7.94,0 13.664,-7.559 13.993,-18.512 z m 14.184,32.996 h -16.146 l 0.366,-7.676 c -4.926,6.065 -11.5,8.949 -20.422,8.949 -10.565,0 -17.8,-8.25 -17.8,-20.229 0,-18.024 12.588,-28.541 34.213,-28.541 2.208,0 5.037,0.199 7.934,0.57 0.604,-2.441 0.763,-3.488 0.763,-4.801 0,-4.908 -3.392,-6.737 -12.496,-6.737 -9.533,-0.108 -17.387,2.271 -20.629,3.333 0.204,-1.229 2.709,-16.659 2.709,-16.659 9.712,-2.846 16.112,-3.917 23.313,-3.917 16.74,0 25.604,7.513 25.587,21.712 0.032,3.805 -0.597,8.5 -1.579,14.671 -1.684,10.734 -5.321,33.721 -5.813,39.325 z M 238.36,91.03 c -5.333,1.679 -9.491,2.398 -14,2.398 -9.962,0 -15.399,-5.725 -15.399,-16.267 -0.142,-3.271 1.433,-11.88 2.671,-19.737 1.125,-6.917 8.449,-50.529 8.449,-50.529 h 19.371 l -2.263,11.208 h 11.699 l -2.642,17.796 h -11.742 c -2.25,14.083 -5.454,31.625 -5.491,33.95 0,3.816 2.037,5.483 6.671,5.483 2.221,0 3.94,-0.227 5.254,-0.7 L 238.36,91.03 m 59.392,-0.6 c -6.654,2.034 -13.075,3.017 -19.879,3 -21.684,-0.021 -32.987,-11.346 -32.987,-33.032 0,-25.313 14.38,-43.947 33.899,-43.947 15.971,0 26.171,10.433 26.171,26.796 0,5.429 -0.7,10.729 -2.388,18.212 h -38.574 c -1.305,10.741 5.57,15.217 16.837,15.217 6.935,0 13.188,-1.429 20.142,-4.663 z m -10.888,-43.9 c 0.107,-1.543 2.055,-13.217 -9.013,-13.217 -6.171,0 -10.583,4.704 -12.38,13.217 z m -123.42,-5.017 c 0,9.367 4.542,15.826 14.842,20.676 7.892,3.709 9.112,4.81 9.112,8.17 0,4.617 -3.479,6.701 -11.191,6.701 -5.813,0 -11.221,-0.908 -17.458,-2.922 0,0 -2.563,16.321 -2.68,17.102 4.43,0.967 8.38,1.861 20.279,2.19 20.563,0 30.059,-7.829 30.059,-24.75 0,-10.175 -3.976,-16.146 -13.737,-20.634 -8.171,-3.75 -9.108,-4.587 -9.108,-8.045 0,-4.004 3.237,-6.046 9.537,-6.046 3.825,0 9.05,0.408 14,1.112 l 2.775,-17.175 c -5.046,-0.8 -12.696,-1.442 -17.15,-1.442 -21.801,0.001 -29.347,11.388 -29.28,25.063 m 229.09,-23.116 c 5.412,0 10.458,1.421 17.412,4.921 l 3.188,-19.763 c -2.854,-1.121 -12.904,-7.7 -21.417,-7.7 -13.041,0 -24.065,6.471 -31.82,17.15 -11.309,-3.746 -15.958,3.825 -21.657,11.367 l -5.063,1.179 c 0.383,-2.483 0.729,-4.95 0.612,-7.446 h -17.896 c -2.445,22.917 -6.778,46.128 -10.171,69.075 l -0.884,4.976 h 19.496 c 3.254,-21.143 5.037,-34.68 6.121,-43.842 l 7.341,-4.084 c 1.097,-4.078 4.529,-5.458 11.417,-5.291 -0.926,5.008 -1.389,10.091 -1.383,15.184 0,24.225 13.07,39.308 34.05,39.308 5.404,0 10.041,-0.712 17.221,-2.658 l 3.43,-20.759 c -6.458,3.181 -11.759,4.677 -16.559,4.677 -11.329,0 -18.184,-8.363 -18.184,-22.185 0,-20.051 10.196,-34.109 24.746,-34.109"
     id="path31" />
  <path
     d="M 95.21,86.744 H 75.719 L 86.89,16.756 61.964,86.744 H 48.681 L 47.039,17.156 35.306,86.744 H 17.065 L 32.302,-4.298 h 28.021 l 0.788,56.362 18.904,-56.362 h 30.267 L 95.21,86.744"
     fill="#ffffff"
     id="path33" />
  <path
     d="m 557.52,1.104 -4.321,26.309 C 547.87,20.4 542.145,15.325 534.587,15.325 c -9.833,0 -18.783,7.455 -24.642,18.425 -8.158,-1.692 -16.597,-4.563 -16.597,-4.563 l -0.004,0.067 c 0.658,-6.134 0.921,-9.875 0.862,-11.146 h -17.9 c -2.438,22.917 -6.771,46.128 -10.157,69.075 l -0.893,4.976 h 19.492 c 2.633,-17.096 4.648,-31.291 6.133,-42.551 6.658,-6.016 9.992,-11.266 16.721,-10.916 -2.979,7.205 -4.725,15.503 -4.725,24.017 0,18.513 9.366,30.725 23.533,30.725 7.142,0 12.621,-2.462 17.967,-8.171 l -0.913,6.884 h 18.435 L 576.741,1.105 Z m -24.371,73.941 c -6.634,0 -9.983,-4.908 -9.983,-14.596 0,-14.555 6.271,-24.875 15.112,-24.875 6.695,0 10.32,5.104 10.32,14.509 0.001,14.679 -6.37,24.962 -15.449,24.962 z"
     id="path35" />
  <path
     d="m 143.19,53.764 c -2.042,-0.236 -2.946,-0.299 -4.346,-0.299 -11.046,0 -16.634,3.787 -16.634,11.266 0,4.604 2.729,7.547 6.979,7.547 7.947,-0.001 13.668,-7.559 14.001,-18.514 z m 14.178,32.984 h -16.146 l 0.367,-7.663 c -4.921,6.054 -11.5,8.95 -20.421,8.95 -10.567,0 -17.805,-8.25 -17.805,-20.229 0,-18.032 12.592,-28.542 34.217,-28.542 2.208,0 5.042,0.2 7.938,0.571 0.604,-2.441 0.763,-3.487 0.763,-4.808 0,-4.909 -3.392,-6.729 -12.496,-6.729 -9.537,-0.108 -17.396,2.271 -20.629,3.321 0.204,-1.225 2.7,-16.637 2.7,-16.637 9.708,-2.858 16.12,-3.929 23.32,-3.929 16.737,0 25.604,7.517 25.588,21.704 0.029,3.821 -0.604,8.513 -1.584,14.675 -1.687,10.724 -5.319,33.724 -5.812,39.316 z m 261.38,-88.592 -3.191,19.767 c -6.95,-3.496 -12,-4.92 -17.407,-4.92 -14.551,0 -24.75,14.058 -24.75,34.106 0,13.821 6.857,22.181 18.184,22.181 4.8,0 10.096,-1.492 16.554,-4.675 l -3.421,20.75 c -7.184,1.957 -11.816,2.67 -17.225,2.67 -20.977,0 -34.051,-15.084 -34.051,-39.309 0,-32.55 18.059,-55.3 43.888,-55.3 8.507,10e-4 18.561,3.609 21.419,4.73 m 31.443,55.608 c -2.041,-0.236 -2.941,-0.299 -4.347,-0.299 -11.041,0 -16.633,3.787 -16.633,11.266 0,4.604 2.729,7.547 6.983,7.547 7.938,-0.001 13.663,-7.559 13.997,-18.514 z m 14.178,32.984 h -16.15 l 0.371,-7.663 c -4.925,6.054 -11.5,8.95 -20.421,8.95 -10.563,0 -17.804,-8.25 -17.804,-20.229 0,-18.032 12.596,-28.542 34.212,-28.542 2.213,0 5.042,0.2 7.941,0.571 0.601,-2.441 0.763,-3.487 0.763,-4.808 0,-4.909 -3.393,-6.729 -12.495,-6.729 -9.533,-0.108 -17.396,2.271 -20.63,3.321 0.204,-1.225 2.704,-16.637 2.704,-16.637 9.709,-2.858 16.116,-3.929 23.316,-3.929 16.741,0 25.604,7.517 25.583,21.704 0.033,3.821 -0.596,8.513 -1.579,14.675 -1.682,10.724 -5.323,33.724 -5.811,39.316 z m -220.39,-1.121 c -5.338,1.679 -9.496,2.408 -14,2.408 -9.962,0 -15.399,-5.726 -15.399,-16.268 -0.138,-3.279 1.438,-11.88 2.675,-19.736 1.12,-6.926 8.445,-50.534 8.445,-50.534 h 19.368 l -2.26,11.212 h 9.941 l -2.646,17.788 h -9.975 c -2.25,14.092 -5.463,31.62 -5.496,33.95 0,3.83 2.041,5.482 6.671,5.482 2.221,0 3.938,-0.216 5.254,-0.691 l -2.578,16.389 m 59.391,-0.592 c -6.65,2.033 -13.079,3.012 -19.879,3 -21.685,-0.021 -32.987,-11.346 -32.987,-33.033 0,-25.321 14.379,-43.95 33.899,-43.95 15.971,0 26.171,10.429 26.171,26.8 0,5.434 -0.7,10.733 -2.384,18.212 h -38.574 c -1.306,10.741 5.569,15.222 16.837,15.222 6.93,0 13.188,-1.435 20.138,-4.677 z M 292.479,41.123 c 0.116,-1.538 2.06,-13.217 -9.013,-13.217 -6.167,0 -10.579,4.717 -12.375,13.217 z m -123.42,-5.005 c 0,9.367 4.542,15.818 14.842,20.675 7.892,3.709 9.112,4.812 9.112,8.172 0,4.616 -3.483,6.699 -11.188,6.699 -5.816,0 -11.225,-0.908 -17.467,-2.921 0,0 -2.554,16.321 -2.671,17.101 4.421,0.967 8.375,1.85 20.275,2.191 20.566,0 30.059,-7.829 30.059,-24.746 0,-10.18 -3.971,-16.15 -13.737,-20.637 -8.167,-3.759 -9.113,-4.584 -9.113,-8.046 0,-4 3.246,-6.059 9.542,-6.059 3.821,0 9.046,0.421 14.004,1.125 l 2.771,-17.179 c -5.042,-0.8 -12.692,-1.441 -17.146,-1.441 -21.804,0 -29.346,11.379 -29.283,25.066 m 398.45,50.63 h -18.438 l 0.917,-6.893 c -5.347,5.717 -10.825,8.18 -17.968,8.18 -14.166,0 -23.528,-12.213 -23.528,-30.726 0,-24.63 14.521,-45.392 31.708,-45.392 7.559,0 13.279,3.087 18.604,10.096 l 4.325,-26.308 H 582.35 Z M 538.763,69.639 c 9.075,0 15.45,-10.283 15.45,-24.953 0,-9.405 -3.629,-14.509 -10.325,-14.509 -8.837,0 -15.115,10.315 -15.115,24.875 -10e-4,9.686 3.357,14.587 9.99,14.587 z M 481.921,12.71 c -2.441,22.917 -6.773,46.13 -10.162,69.063 l -0.892,4.976 h 19.491 c 6.972,-45.275 8.658,-54.117 19.588,-53.009 1.742,-9.267 4.982,-17.383 7.399,-21.479 -8.163,-1.7 -12.721,2.913 -18.688,11.675 0.471,-3.788 1.333,-7.467 1.162,-11.225 L 481.921,12.71 m -160.42,0 c -2.446,22.917 -6.779,46.13 -10.167,69.063 l -0.888,4.976 h 19.5 c 6.963,-45.275 8.646,-54.117 19.57,-53.009 1.75,-9.267 4.991,-17.383 7.399,-21.479 -8.154,-1.7 -12.717,2.913 -18.679,11.675 0.471,-3.788 1.324,-7.467 1.162,-11.225 L 321.501,12.71 m 254.57,68.241 c -0.004,-3.199 2.586,-5.795 5.784,-5.799 h 0.012 c 3.197,-0.004 5.793,2.586 5.796,5.783 v 0.016 c -10e-4,3.201 -2.595,5.795 -5.796,5.797 -3.201,-0.002 -5.795,-2.596 -5.796,-5.797 z m 5.796,4.405 c 2.431,0.002 4.402,-1.969 4.403,-4.399 v -0.004 c 0.003,-2.433 -1.968,-4.406 -4.399,-4.408 h -0.004 c -2.435,0.001 -4.407,1.974 -4.408,4.408 0.002,2.432 1.975,4.403 4.408,4.403 z m -0.784,-1.871 h -1.188 v -5.082 h 2.153 c 0.446,0 0.909,0.009 1.296,0.254 0.417,0.283 0.654,0.767 0.654,1.274 0,0.575 -0.337,1.112 -0.888,1.317 l 0.941,2.236 h -1.32 l -0.779,-2.009 h -0.87 z m 0,-2.879 h 0.653 c 0.246,0 0.513,0.019 0.729,-0.1 0.196,-0.125 0.296,-0.361 0.296,-0.588 -0.009,-0.21 -0.114,-0.404 -0.287,-0.523 -0.204,-0.117 -0.542,-0.084 -0.763,-0.084 h -0.629 z"
     fill="#ffffff"
     id="path37" />
</svg>