<svg width="20" height="20" viewBox="0 0 20 20" fill="none" xmlns="http://www.w3.org/2000/svg">
<path d="M11.3333 1.66699H4.66667C4.22464 1.66699 3.80072 1.84259 3.48816 2.15515C3.17559 2.46771 3 2.89163 3 3.33366V16.667C3 17.109 3.17559 17.5329 3.48816 17.8455C3.80072 18.1581 4.22464 18.3337 4.66667 18.3337H14.6667C15.1087 18.3337 15.5326 18.1581 15.8452 17.8455C16.1577 17.5329 16.3333 17.109 16.3333 16.667V6.66699L11.3333 1.66699Z" stroke="#516FF6" stroke-width="1.5" stroke-linecap="round" stroke-linejoin="round"/>
<path d="M11.334 1.66699V6.66699H16.334" stroke="#516FF6" stroke-width="1.5" stroke-linecap="round" stroke-linejoin="round"/>
<path d="M13.0007 10.834H6.33398" stroke="#516FF6" stroke-width="1.5" stroke-linecap="round" stroke-linejoin="round"/>
<path d="M13.0007 14.167H6.33398" stroke="#516FF6" stroke-width="1.5" stroke-linecap="round" stroke-linejoin="round"/>
<path d="M8.00065 7.5H7.16732H6.33398" stroke="#516FF6" stroke-width="1.5" stroke-linecap="round" stroke-linejoin="round"/>
</svg>
