<svg width="20" height="20" viewBox="0 0 20 20" fill="none" xmlns="http://www.w3.org/2000/svg">
<path d="M7.50697 10.4974V5.92129C7.50697 5.86606 7.46282 5.82129 7.40759 5.82129H2.73085C1.75746 5.82129 1.75556 10.5974 2.73085 10.5974H7.4076C7.46282 10.5974 7.50697 10.5526 7.50697 10.4974Z" stroke="#516FF6" stroke-width="1.5"/>
<path d="M9.64258 5.8209C12.6269 4.32874 16.3291 2 17.2844 2C18.2396 2 18.2396 14.4179 17.2844 14.4179C16.3291 14.4179 9.64258 10.597 9.64258 10.597" stroke="#516FF6" stroke-width="1.5" stroke-linecap="round"/>
<path d="M7.6691 13.4629H4.99331C4.92825 13.4629 4.88052 13.524 4.8963 13.5871L5.80152 17.208C5.81265 17.2526 5.85265 17.2838 5.89854 17.2838H9.47955C9.55389 17.2838 9.60224 17.2056 9.56899 17.1391L7.75855 13.5182C7.74161 13.4843 7.70698 13.4629 7.6691 13.4629Z" stroke="#516FF6" stroke-width="1.5" stroke-linecap="round"/>
</svg>
