<svg width="13" height="15" viewBox="0 0 13 15" fill="none" xmlns="http://www.w3.org/2000/svg">
<mask id="mask0_9408_2542" style="mask-type:alpha" maskUnits="userSpaceOnUse" x="0" y="0" width="13" height="13">
<path fill-rule="evenodd" clip-rule="evenodd" d="M0 0.666016H12.3313V12.2313H0V0.666016Z" fill="white"/>
</mask>
<g mask="url(#mask0_9408_2542)">
<path fill-rule="evenodd" clip-rule="evenodd" d="M6.16464 1.66602C3.83464 1.66602 2.21064 3.49135 2.21064 5.12935C2.21064 6.51535 1.82597 7.15602 1.48597 7.72135C1.2133 8.17535 0.997972 8.53402 0.997972 9.31335C1.1093 10.5707 1.93931 11.2313 6.16464 11.2313C10.3666 11.2313 11.2226 10.5413 11.3333 9.27001C11.3313 8.53402 11.116 8.17535 10.8433 7.72135C10.5033 7.15602 10.1186 6.51535 10.1186 5.12935C10.1186 3.49135 8.49464 1.66602 6.16464 1.66602ZM6.16468 12.2313C3.04734 12.2313 0.230009 12.0113 8.90312e-06 9.35602C-0.0019911 8.25735 0.333342 7.69868 0.629342 7.20668C0.928676 6.70801 1.21068 6.23802 1.21068 5.12935C1.21068 2.97402 3.20134 0.666016 6.16468 0.666016C9.12801 0.666016 11.1187 2.97402 11.1187 5.12935C11.1187 6.23802 11.4007 6.70801 11.7 7.20668C11.996 7.69868 12.3313 8.25735 12.3313 9.31335C12.0987 12.0113 9.28201 12.2313 6.16468 12.2313Z" fill="white"/>
</g>
<path fill-rule="evenodd" clip-rule="evenodd" d="M6.1321 14.9994H6.13077C5.38344 14.9988 4.6761 14.6694 4.13944 14.0714C3.95477 13.8668 3.97144 13.5501 4.17677 13.3661C4.3821 13.1808 4.6981 13.1974 4.88277 13.4034C5.2281 13.7881 5.67144 13.9994 6.13144 13.9994H6.1321C6.5941 13.9994 7.03944 13.7881 7.38544 13.4028C7.57077 13.1981 7.88677 13.1814 8.09144 13.3661C8.29677 13.5508 8.31344 13.8674 8.12877 14.0721C7.5901 14.6701 6.88144 14.9994 6.1321 14.9994Z" fill="white"/>
</svg>
