<svg width="11" height="14" viewBox="0 0 11 14" fill="none" xmlns="http://www.w3.org/2000/svg">
<mask id="mask0_3553:19620" style="mask-type:alpha" maskUnits="userSpaceOnUse" x="0" y="8" width="11" height="6">
<path fill-rule="evenodd" clip-rule="evenodd" d="M0 8.33105H10.5599V13.2471H0V8.33105Z" fill="white"/>
</mask>
<g mask="url(#mask0_3553:19620)">
<path fill-rule="evenodd" clip-rule="evenodd" d="M5.28042 9.33105C2.43976 9.33105 0.999756 9.81905 0.999756 10.7824C0.999756 11.7544 2.43976 12.2471 5.28042 12.2471C8.12042 12.2471 9.55976 11.7591 9.55976 10.7957C9.55976 9.82372 8.12042 9.33105 5.28042 9.33105ZM5.28042 13.2471C3.97442 13.2471 -0.000244141 13.2471 -0.000244141 10.7824C-0.000244141 8.58505 3.01376 8.33105 5.28042 8.33105C6.58642 8.33105 10.5598 8.33105 10.5598 10.7957C10.5598 12.9931 7.54642 13.2471 5.28042 13.2471Z" fill="#516FF6"/>
</g>
<mask id="mask1_3553:19620" style="mask-type:alpha" maskUnits="userSpaceOnUse" x="1" y="0" width="8" height="8">
<path fill-rule="evenodd" clip-rule="evenodd" d="M1.73999 0H8.82001V7.07907H1.73999V0Z" fill="white"/>
</mask>
<g mask="url(#mask1_3553:19620)">
<path fill-rule="evenodd" clip-rule="evenodd" d="M5.2807 0.952048C3.85337 0.952048 2.69203 2.11271 2.69203 3.54005C2.68737 4.96271 3.84003 6.12271 5.26137 6.12805L5.2807 6.60405V6.12805C6.70737 6.12805 7.86803 4.96671 7.86803 3.54005C7.86803 2.11271 6.70737 0.952048 5.2807 0.952048ZM5.28068 7.07933H5.25934C3.31134 7.07333 1.73334 5.48467 1.74001 3.538C1.74001 1.588 3.32801 0 5.28068 0C7.23268 0 8.82001 1.588 8.82001 3.54C8.82001 5.492 7.23268 7.07933 5.28068 7.07933Z" fill="#516FF6"/>
</g>
</svg>
