<svg width="18" height="18" viewBox="0 0 18 18" fill="none" xmlns="http://www.w3.org/2000/svg">
<path d="M6.84996 6.05112L9 1.69466L11.15 6.05112C11.3321 6.42005 11.6841 6.67576 12.0912 6.73492L16.8988 7.43351L13.42 10.8245C13.1254 11.1117 12.991 11.5255 13.0605 11.931L13.8818 16.7192L9.58168 14.4585C9.21752 14.267 8.78248 14.267 8.41832 14.4585L4.11825 16.7192L4.93949 11.931C5.00903 11.5255 4.8746 11.1117 4.57999 10.8245L1.10116 7.43351L5.90879 6.73492C6.31593 6.67576 6.66788 6.42005 6.84996 6.05112ZM17.2616 7.07993L17.2613 7.08023L17.2616 7.07993ZM13.9674 17.2184C13.9674 17.2183 13.9673 17.2182 13.9673 17.218L13.9674 17.2184Z" stroke="#E25241" stroke-width="1.5"/>
</svg>
