<svg width="18" height="15" viewBox="0 0 18 15" fill="none" xmlns="http://www.w3.org/2000/svg">
<path d="M0.5 7.05868C0.537619 6.93699 0.564978 6.81017 0.617986 6.69534C0.734263 6.43998 0.937746 6.26003 1.18056 6.13492C1.42337 6.00981 1.67473 5.90527 1.9261 5.79901C2.67847 5.47852 3.43427 5.16146 4.18836 4.84269C5.51186 4.28398 6.83535 3.72527 8.15885 3.16656C9.52339 2.59072 10.8879 2.01315 12.2542 1.43902C13.2733 1.00542 14.2959 0.576963 15.3184 0.150219C15.5544 0.0525302 15.7989 -0.00916776 16.0588 0.00111523C16.5718 0.0216812 17.0215 0.39701 17.1327 0.900877C17.1908 1.16138 17.1669 1.42017 17.1173 1.67724C17.0112 2.21539 16.9052 2.75524 16.8009 3.29339C16.6966 3.82982 16.5923 4.36796 16.488 4.90439C16.3615 5.55222 16.2349 6.20005 16.1084 6.84787C15.9853 7.47685 15.8622 8.10583 15.7408 8.7348C15.5903 9.51117 15.4398 10.2875 15.2876 11.0639C15.132 11.8677 14.9747 12.6698 14.8174 13.4736C14.7883 13.6261 14.7593 13.7803 14.7285 13.9329C14.6891 14.1282 14.5831 14.2876 14.4634 14.4402C14.1112 14.8875 13.6392 15.0383 13.0886 14.992C12.8937 14.9749 12.7056 14.9235 12.5312 14.836C12.456 14.7983 12.3893 14.7435 12.3209 14.6904C11.3565 13.95 10.3938 13.2079 9.42934 12.4658C9.41908 12.4572 9.40882 12.4504 9.39344 12.4401C9.25493 12.5669 9.11642 12.692 8.97792 12.8189C8.50084 13.2542 8.03232 13.6981 7.54327 14.1214C7.29704 14.3339 6.99267 14.3836 6.66778 14.315C6.33605 14.2448 6.14796 14.0151 6.0009 13.7375C5.86923 13.4907 5.79571 13.2233 5.71363 12.9577C5.41097 11.9705 5.10831 10.9816 4.80565 9.99276C4.75606 9.83337 4.70647 9.6757 4.6603 9.5146C4.64833 9.47518 4.62952 9.45633 4.59019 9.44262C3.69247 9.14098 2.79646 8.83935 1.90045 8.53429C1.70209 8.46573 1.49861 8.40232 1.31052 8.31149C1.02153 8.17267 0.780431 7.97044 0.635086 7.67908C0.580368 7.56768 0.553008 7.44257 0.51368 7.32261C0.50855 7.30718 0.50513 7.29004 0.5 7.27462C0.5 7.20435 0.5 7.13066 0.5 7.05868ZM15.8741 1.32419C15.8673 1.31905 15.8622 1.31391 15.8553 1.31048C11.2179 3.26768 6.58057 5.22488 1.92439 7.19064C2.07657 7.24206 2.20824 7.28662 2.3399 7.33118C3.44282 7.70308 4.54403 8.07498 5.64694 8.44859C5.67943 8.46059 5.70337 8.45888 5.73415 8.44002C6.05904 8.23608 6.38735 8.03385 6.71224 7.83161C7.76215 7.18036 8.81205 6.52739 9.86196 5.87613C11.0606 5.13233 12.2593 4.38681 13.4597 3.64472C13.5315 3.60016 13.6204 3.5796 13.7042 3.55732C13.7606 3.54189 13.8273 3.55046 13.8547 3.61216C13.8872 3.68585 13.9094 3.76812 13.8461 3.8401C13.7812 3.91379 13.7145 3.98749 13.6444 4.05433C13.169 4.49992 12.6902 4.94552 12.2131 5.3894C11.4197 6.13149 10.6246 6.87358 9.83118 7.61567C9.07197 8.3252 8.31104 9.03473 7.55353 9.74597C7.5313 9.76825 7.51078 9.80081 7.50565 9.83166C7.44239 10.2173 7.38254 10.6046 7.32269 10.9919C7.24232 11.5078 7.16195 12.0236 7.08159 12.5378C7.0662 12.6389 7.05081 12.7383 7.03713 12.8394C7.04055 12.8411 7.04568 12.8446 7.0491 12.8463C7.8066 12.1556 8.5624 11.4632 9.31991 10.7726C9.34214 10.7897 9.35924 10.8017 9.37634 10.8154C9.91668 11.2301 10.457 11.6466 10.9974 12.0614C11.6831 12.5892 12.3687 13.1171 13.0579 13.6415C13.1194 13.6878 13.2015 13.7152 13.2784 13.7323C13.3759 13.7546 13.4699 13.6758 13.4905 13.573C13.5691 13.1702 13.6461 12.7675 13.7247 12.3647C13.906 11.4358 14.089 10.5069 14.2702 9.57801C14.4532 8.64226 14.6327 7.7065 14.8157 6.77075C14.9969 5.84186 15.1799 4.91296 15.3612 3.98406C15.515 3.19741 15.6672 2.41076 15.8194 1.62411C15.8416 1.52128 15.857 1.4236 15.8741 1.32419Z" fill="white" fill-opacity="0.5"/>
</svg>
