<svg width="39" height="46" viewBox="0 0 39 46" fill="none" xmlns="http://www.w3.org/2000/svg">
<path d="M12.0649 0.657803C11.3442 0.912685 10.641 1.37851 10.0961 1.97616C9.56876 2.53866 9.33146 2.96933 9.00626 3.86581L8.82169 4.37558L8.24161 4.56894C7.44181 4.8414 6.72989 5.28964 6.18497 5.87851C5.70157 6.39706 5.13028 7.4078 5.0336 7.92636C4.96329 8.2955 4.89298 8.35702 4.33927 8.48886C2.83634 8.858 1.41251 10.3082 1.00821 11.8902C0.885166 12.3736 0.867588 13.982 0.867588 26.8668C0.867588 42.8101 0.832431 41.7818 1.4213 42.9068C1.78165 43.5836 2.69571 44.4976 3.37247 44.858C4.49747 45.4469 3.7504 45.4117 15.5014 45.4117C24.9936 45.4117 26.1977 45.3941 26.6283 45.2711C28.2279 44.7965 29.4936 43.5748 30.0033 42.0016L30.1879 41.4303L30.6449 41.316C32.2094 40.9117 33.5717 39.6021 34.0199 38.0553C34.2045 37.4312 34.2133 37.4225 34.5473 37.3697C35.6108 37.1851 37.0522 36.0426 37.6059 34.9527C38.2123 33.7574 38.1684 34.6539 38.2035 22.3404C38.2211 16.1969 38.2035 11.0113 38.1772 10.8004C38.1244 10.44 37.8608 10.15 33.809 5.87851C31.4447 3.38241 29.309 1.14999 29.0805 0.912685L28.6498 0.499599H20.5815C13.0932 0.508389 12.4779 0.517178 12.0649 0.657803ZM27.1645 5.43905C27.1996 8.24276 27.226 8.68222 27.3666 9.06015C27.7358 10.0621 28.3598 10.8267 29.2123 11.3101C30.0121 11.7672 30.5658 11.8375 33.5893 11.8375H36.2875L36.2699 22.6217L36.2436 33.4146L36.0063 33.9156C35.7338 34.5133 35.1713 35.0846 34.5649 35.3922L34.1342 35.6119L23.7192 35.6383C15.8266 35.6558 13.2074 35.6383 12.9086 35.5592C12.3988 35.4185 11.6693 34.9439 11.3617 34.5396C11.2299 34.3639 11.0277 33.9947 10.9135 33.731L10.7113 33.2389V18.9566V4.6744L10.9223 4.17343C11.1596 3.59335 11.4057 3.27694 11.9242 2.87265C12.7416 2.23983 12.4164 2.2662 20.1772 2.25741H27.1293L27.1645 5.43905ZM31.7172 6.47616C32.9477 7.75937 34.2045 9.07772 34.5209 9.40292L35.101 10.0006L32.9037 9.97421C30.9701 9.94784 30.6713 9.93026 30.3988 9.78085C29.81 9.47323 29.5024 9.1744 29.2914 8.72616C29.0893 8.28671 29.0805 8.2164 29.0805 5.99276V3.70761L29.2826 3.92733C29.3969 4.05038 30.4955 5.19296 31.7172 6.47616ZM9.02384 34.1617C9.30509 34.9351 9.60392 35.4361 10.1313 35.9986C10.6938 36.5963 11.4584 37.0973 12.1967 37.3521L12.7768 37.5455L22.4711 37.5719C30.2494 37.5894 32.1567 37.6158 32.1567 37.7037C32.1567 37.8707 31.6908 38.565 31.4008 38.8375C31.2602 38.9693 30.9262 39.1803 30.6625 39.3209L30.1791 39.567L19.7025 39.5933L9.23478 39.6109L8.72501 39.4264C8.07462 39.1803 7.36271 38.5211 7.0463 37.8619L6.80021 37.3697V22.9117V8.4537L7.03751 7.9703C7.30997 7.42538 7.86368 6.8453 8.38224 6.57284L8.7338 6.38827L8.77774 19.985L8.82169 33.5904L9.02384 34.1617ZM4.84024 23.8961C4.86661 36.8336 4.8754 37.484 5.0336 37.941C5.61368 39.6549 6.79142 40.8326 8.47013 41.36C8.85685 41.4742 10.1137 41.5006 18.56 41.5182L28.2104 41.5533L27.9731 41.9928C27.6654 42.5465 27.1733 42.9947 26.5404 43.2935L26.0483 43.5221L15.7211 43.5484C7.92521 43.566 5.29728 43.5484 4.99845 43.4693C3.9086 43.1793 3.03849 42.274 2.80118 41.1842C2.73087 40.8326 2.71329 36.9918 2.73087 26.5592L2.75724 12.4088L3.00333 11.9078C3.29337 11.3189 3.80313 10.7828 4.32169 10.5279C4.52384 10.4225 4.7172 10.3433 4.75235 10.3433C4.78751 10.3433 4.83145 16.443 4.84024 23.8961Z" fill="#516FF6"/>
<path d="M26.6993 11.9961C26.5148 12.0752 18.4288 20.082 18.2443 20.3721C18.1036 20.5918 16.5392 25.4609 16.5128 25.7686C16.4513 26.4014 16.8029 26.8672 17.3478 26.8672C17.5236 26.8672 18.8595 26.4893 20.3185 26.0322L22.9728 25.1973L27.0861 21.0928C29.547 18.6406 31.2609 16.8564 31.34 16.6807C31.5773 16.1182 31.4806 15.9775 29.5294 14C27.5607 12.0049 27.2355 11.7764 26.6993 11.9961ZM27.9386 17.5244C27.2882 18.1924 25.8029 19.6953 24.6427 20.8643L22.5333 23L21.4611 21.9277L20.38 20.8467L23.6935 17.5332L27.0158 14.2109L28.0704 15.2656L29.1251 16.3203L27.9386 17.5244ZM19.8351 24.2041C19.3429 24.3535 18.921 24.4766 18.9122 24.459C18.8947 24.4414 19.0089 24.0283 19.1671 23.5361L19.4484 22.6396L20.09 23.2813L20.7316 23.9141L19.8351 24.2041Z" fill="#516FF6"/>
<path d="M15.7561 30.0313C15.1145 30.2949 15.0178 31.1738 15.5803 31.6309C15.7561 31.7715 16.301 31.7891 23.5257 31.7891H31.2952L31.5501 31.5342C31.9104 31.1738 31.9104 30.6729 31.5501 30.2773L31.2952 29.9873L23.6136 29.9697C19.3948 29.9609 15.8528 29.9873 15.7561 30.0313Z" fill="#516FF6"/>
</svg>
