<svg width="20" height="20" viewBox="0 0 20 20" fill="none" xmlns="http://www.w3.org/2000/svg">
<g clip-path="url(#clip0_3990_28020)">
<path d="M17.5578 1.94742C17.0404 1.49325 14.9447 0.0332547 10.2778 0.014088C10.2778 0.014088 4.77083 -0.301745 2.08822 2.05742C0.596048 3.48742 0.0734395 5.58159 0.0134395 8.17909C-0.0465605 10.7766 -0.113517 15.6449 4.783 16.9683H4.78735L4.783 18.9841C4.783 18.9841 4.75083 19.8008 5.31083 19.9649C5.98735 20.1683 6.38735 19.5466 7.03518 18.8783C7.38996 18.5108 7.87866 17.9724 8.24996 17.5616C10.3778 17.7505 12.5236 17.5935 14.5969 17.0974L14.4665 17.1241C15.143 16.9133 18.9708 16.4441 19.59 11.5766C20.2369 6.55159 19.2821 3.38159 17.5578 1.94742ZM18.1247 11.2099C17.5969 15.2724 14.496 15.5308 13.9256 15.7058C12.6804 16.0091 11.2508 16.1824 9.77866 16.1824C9.35605 16.1824 8.93692 16.1683 8.52213 16.1399L8.57779 16.1433C8.57779 16.1433 6.45779 18.5924 5.79779 19.2291C5.58214 19.4358 5.34474 19.4191 5.34909 19.0066C5.34909 18.7374 5.36561 15.6583 5.36561 15.6583C1.2204 14.5566 1.4604 10.4099 1.50909 8.24409C1.55779 6.07825 1.98214 4.29825 3.24561 3.10325C5.51692 1.13075 10.1926 1.42325 10.1926 1.42325C14.143 1.43909 16.0343 2.57992 16.4743 2.96242C17.93 4.15825 18.6717 7.01826 18.1247 11.2091V11.2099ZM12.463 8.05326V8.06492C12.4612 8.12982 12.4334 8.19156 12.3855 8.23741C12.3375 8.28326 12.273 8.30972 12.2053 8.31132C12.1376 8.31293 12.0718 8.28955 12.0215 8.24603C11.9713 8.20251 11.9404 8.14215 11.9352 8.07742V8.07659C11.9529 7.9026 11.931 7.727 11.871 7.56191C11.811 7.39683 11.7143 7.24618 11.5877 7.12037C11.461 6.99456 11.3074 6.89658 11.1374 6.8332C10.9674 6.76982 10.7851 6.74254 10.603 6.75325H10.6065C10.5389 6.74824 10.4759 6.71854 10.4305 6.67029C10.3852 6.62204 10.3609 6.55893 10.3626 6.494C10.3644 6.42907 10.3922 6.36728 10.4401 6.32139C10.4881 6.2755 10.5526 6.24902 10.6204 6.24742H10.6352H10.6343L10.6943 6.24659C10.9371 6.24651 11.1773 6.29426 11.4 6.38687C11.6227 6.47948 11.8232 6.61497 11.9889 6.78494C12.1547 6.95491 12.2823 7.15571 12.3637 7.3749C12.4451 7.59409 12.4786 7.82697 12.4621 8.05909V8.05409L12.463 8.05326ZM13.29 8.49576C13.3308 6.83909 12.2508 5.54242 10.2004 5.39742C10.1648 5.39636 10.1298 5.38841 10.0975 5.37408C10.0652 5.35974 10.0363 5.33929 10.0124 5.31397C9.98859 5.28865 9.97032 5.25898 9.95872 5.22672C9.94713 5.19447 9.94245 5.16031 9.94497 5.12628C9.94749 5.09225 9.95716 5.05907 9.97338 5.02871C9.98961 4.99835 10.0121 4.97144 10.0394 4.9496C10.0668 4.92776 10.0984 4.91144 10.1325 4.90161C10.1666 4.89179 10.2024 4.88866 10.2378 4.89242H10.2369H10.2517C10.7383 4.89241 11.2198 4.98771 11.6666 5.17249C12.1133 5.35727 12.516 5.62762 12.8498 5.96695C13.1836 6.30627 13.4415 6.7074 13.6076 7.1457C13.7738 7.584 13.8447 8.05023 13.816 8.51575L13.8169 8.50659C13.8123 8.57118 13.782 8.6316 13.7323 8.67546C13.6826 8.71932 13.6173 8.74328 13.5497 8.74243C13.4822 8.74158 13.4175 8.71597 13.3691 8.67087C13.3206 8.62577 13.292 8.5646 13.2891 8.49992V8.49326L13.29 8.49576ZM15.203 9.01992V9.02159C15.1995 9.08618 15.1703 9.14704 15.1215 9.19168C15.0726 9.23633 15.0078 9.26138 14.9403 9.2617C14.8728 9.26202 14.8078 9.23758 14.7585 9.19341C14.7092 9.14923 14.6794 9.08865 14.6752 9.02409C14.6543 5.83909 12.4378 4.10492 9.7517 4.08659C9.7171 4.08659 9.68284 4.08006 9.65087 4.06737C9.61891 4.05468 9.58986 4.03608 9.56539 4.01263C9.54093 3.98919 9.52152 3.96135 9.50828 3.93072C9.49504 3.90008 9.48822 3.86725 9.48822 3.83409C9.48822 3.80093 9.49504 3.7681 9.50828 3.73746C9.52152 3.70683 9.54093 3.67899 9.56539 3.65554C9.58986 3.6321 9.61891 3.6135 9.65087 3.60081C9.68284 3.58812 9.7171 3.58159 9.7517 3.58159C12.7595 3.60159 15.1769 5.59075 15.2013 9.01909L15.203 9.01992ZM14.7465 12.8516V12.8591C14.3065 13.6016 13.483 14.4216 12.6352 14.1599L12.6274 14.1483C11.1158 13.6152 9.69887 12.8622 8.42648 11.9158L8.46214 11.9408C7.82899 11.459 7.25463 10.9102 6.74996 10.3049L6.73344 10.2841C6.27649 9.73284 5.86868 9.14578 5.51431 8.52909L5.47953 8.46325C5.06026 7.80085 4.71266 7.09916 4.44214 6.36909L4.41605 6.28742C4.143 5.47492 4.99431 4.68575 5.77344 4.26409H5.78127C5.93455 4.17006 6.11861 4.13346 6.29828 4.16128C6.47794 4.18911 6.64061 4.27941 6.75518 4.41492L6.75605 4.41659C6.75605 4.41659 7.26127 4.99409 7.47779 5.27992C7.68127 5.54575 7.95518 5.97159 8.09692 6.20909C8.20364 6.37137 8.24707 6.56458 8.21954 6.75458C8.19201 6.94458 8.0953 7.11914 7.94648 7.24742L7.94561 7.24825L7.45692 7.62325C7.38072 7.69373 7.32184 7.77958 7.28454 7.87456C7.24724 7.96954 7.23246 8.07129 7.24127 8.17242V8.16992C7.48325 8.94269 7.91998 9.64651 8.51294 10.2193C9.10589 10.792 9.83683 11.2161 10.6413 11.4541L10.6778 11.4633C10.7828 11.4712 10.8884 11.4569 10.987 11.4213C11.0855 11.3857 11.1747 11.3298 11.2482 11.2574L11.6395 10.7891C11.7739 10.6458 11.957 10.5529 12.1562 10.5268C12.3554 10.5007 12.5578 10.5432 12.7274 10.6466L12.7239 10.6449C13.4308 11.0308 14.0421 11.4549 14.5995 11.9358L14.59 11.9274C14.7314 12.0355 14.8255 12.1903 14.8538 12.3615C14.8821 12.5326 14.8426 12.7078 14.743 12.8524L14.7447 12.8499L14.7465 12.8516Z" fill="#0057FF" fill-opacity="0.5"/>
</g>
<defs>
<clipPath id="clip0_3990_28020">
<rect width="20" height="20" fill="white"/>
</clipPath>
</defs>
</svg>
