<?xml version="1.0" encoding="UTF-8" standalone="no"?>
<svg
   width="2103.9709"
   height="682.57343"
   viewBox="0 0 119.28 38.696999"
   version="1.1"
   id="svg33"
   sodipodi:docname="Visa.svg"
   inkscape:version="1.2 (dc2aedaf03, 2022-05-15)"
   xmlns:inkscape="http://www.inkscape.org/namespaces/inkscape"
   xmlns:sodipodi="http://sodipodi.sourceforge.net/DTD/sodipodi-0.dtd"
   xmlns="http://www.w3.org/2000/svg"
   xmlns:svg="http://www.w3.org/2000/svg">
  <defs
     id="defs37" />
  <sodipodi:namedview
     id="namedview35"
     pagecolor="#ffffff"
     bordercolor="#000000"
     borderopacity="0.25"
     inkscape:showpageshadow="2"
     inkscape:pageopacity="0.0"
     inkscape:pagecheckerboard="0"
     inkscape:deskcolor="#d1d1d1"
     showgrid="false"
     inkscape:zoom="0.3256"
     inkscape:cx="1053.4398"
     inkscape:cy="342.44472"
     inkscape:window-width="1920"
     inkscape:window-height="1001"
     inkscape:window-x="-9"
     inkscape:window-y="-9"
     inkscape:window-maximized="1"
     inkscape:current-layer="svg33" />
  <g
     fill="#2566af"
     id="g27"
     transform="translate(-11.226,-51.519)">
    <path
       d="m 62.935,89.571 h -9.733 l 6.083,-37.384 h 9.734 z M 45.014,52.187 35.735,77.9 34.637,72.363 34.638,72.365 31.363,55.553 c 0,0 -0.396,-3.366 -4.617,-3.366 h -15.34 l -0.18,0.633 c 0,0 4.691,0.976 10.181,4.273 l 8.456,32.479 H 40.004 L 55.489,52.187 Z m 76.555,37.384 h 8.937 l -7.792,-37.385 h -7.824 c -3.613,0 -4.493,2.786 -4.493,2.786 L 95.881,89.571 h 10.146 l 2.029,-5.553 h 12.373 z m -10.71,-13.224 5.114,-13.99 2.877,13.99 z m -14.217,-15.17 1.389,-8.028 c 0,0 -4.286,-1.63 -8.754,-1.63 -4.83,0 -16.3,2.111 -16.3,12.376 0,9.658 13.462,9.778 13.462,14.851 0,5.073 -12.075,4.164 -16.06,0.965 l -1.447,8.394 c 0,0 4.346,2.111 10.986,2.111 6.642,0 16.662,-3.439 16.662,-12.799 0,-9.72 -13.583,-10.625 -13.583,-14.851 0.001,-4.227 9.48,-3.684 13.645,-1.389 z"
       id="path25" />
  </g>
  <path
     d="M 23.412,20.845 20.137,4.033 c 0,0 -0.396,-3.366 -4.617,-3.366 H 0.18 L 0,1.3 c 0,0 7.373,1.528 14.445,7.253 6.762,5.472 8.967,12.292 8.967,12.292 z"
     fill="#e6a540"
     id="path29" />
  <path
     fill="none"
     d="M -11.226,-51.519 H 130.506 V 90.213 H -11.226 Z"
     id="path31" />
</svg>
