<svg  viewBox="0 0 14 14" fill="none" xmlns="http://www.w3.org/2000/svg">
<path d="M0 6.998C0 5.14201 0.737287 3.36205 2.04967 2.04967C3.36205 0.737287 5.14201 0 6.998 0C8.85398 0 10.634 0.737287 11.9463 2.04967C13.2587 3.36205 13.996 5.14201 13.996 6.998C13.996 8.85398 13.2587 10.634 11.9463 11.9463C10.634 13.2587 8.85398 13.996 6.998 13.996C5.14201 13.996 3.36205 13.2587 2.04967 11.9463C0.737287 10.634 0 8.85398 0 6.998ZM6.998 1H6.948C7.04 1.18 7.14 1.395 7.23 1.634C7.473 2.28 7.694 3.226 7.301 4.062C6.939 4.832 6.316 5.032 5.851 5.152L5.783 5.169C5.331 5.286 5.143 5.334 5.008 5.539C4.882 5.731 4.904 5.972 5.048 6.439L5.08 6.544C5.137 6.726 5.205 6.942 5.24 7.146C5.285 7.4 5.297 7.718 5.137 8.026C5.00069 8.3012 4.78371 8.5283 4.515 8.677C4.28 8.805 4.035 8.854 3.851 8.887L3.782 8.899C3.424 8.962 3.242 8.994 3.068 9.181C2.931 9.328 2.846 9.583 2.796 9.953C2.776 10.104 2.764 10.254 2.751 10.409L2.745 10.491C2.731 10.661 2.713 10.855 2.675 11.021L2.651 11.131C3.21062 11.7213 3.88475 12.1912 4.63218 12.512C5.3796 12.8329 6.18462 12.9979 6.998 12.997C8.0726 12.9986 9.1277 12.7101 10.052 12.162C9.96026 12.072 9.8741 11.9765 9.794 11.876C9.557 11.578 9.25 11.069 9.356 10.47C9.407 10.183 9.561 9.941 9.712 9.754C9.866 9.564 10.052 9.388 10.215 9.237C10.2519 9.20327 10.2889 9.1696 10.326 9.136C10.451 9.021 10.559 8.923 10.65 8.827C10.6952 8.78144 10.7369 8.73264 10.775 8.681C10.798 8.648 10.805 8.631 10.806 8.628C10.856 8.461 10.796 8.338 10.722 8.281C10.667 8.239 10.527 8.176 10.276 8.334C10.1926 8.38813 10.1082 8.44081 10.023 8.492C9.93782 8.54476 9.84508 8.58421 9.748 8.609C9.61637 8.64051 9.4777 8.62086 9.36 8.55404C9.24231 8.48721 9.15438 8.37818 9.114 8.249C9.09409 8.18425 9.08464 8.11673 9.086 8.049C9.08613 7.98567 9.09149 7.92245 9.102 7.86C9.127 7.65 9.165 7.34 9.045 6.878C8.948 6.507 8.807 6.224 8.663 5.936C8.59425 5.80032 8.5289 5.66294 8.467 5.524C8.379 5.324 8.283 5.064 8.3 4.788C8.32 4.468 8.481 4.208 8.742 4.012C9.059 3.774 9.458 3.229 9.803 2.678C9.968 2.415 10.11 2.168 10.21 1.988L10.233 1.946C9.26791 1.3265 8.14481 0.998073 6.998 1ZM11.035 2.561C10.933 2.741 10.802 2.968 10.651 3.209C10.312 3.749 9.827 4.449 9.342 4.812C9.32576 4.82349 9.31098 4.83692 9.298 4.852C9.298 4.879 9.308 4.953 9.382 5.122C9.415 5.195 9.46 5.287 9.512 5.392C9.669 5.706 9.888 6.147 10.012 6.626C10.079 6.882 10.111 7.11 10.122 7.307C10.558 7.163 10.996 7.229 11.334 7.49C11.752 7.813 11.927 8.375 11.764 8.918C11.688 9.166 11.514 9.371 11.374 9.518C11.256 9.641 11.114 9.77 10.986 9.888L10.892 9.973C10.7488 10.1 10.6148 10.237 10.491 10.383C10.385 10.513 10.349 10.598 10.341 10.645C10.311 10.81 10.392 11.022 10.577 11.255C10.6688 11.3692 10.7716 11.474 10.884 11.568C11.5468 11.0054 12.0792 10.3051 12.4439 9.51587C12.8086 8.72664 12.997 7.86743 12.996 6.998C12.996 5.24 12.24 3.658 11.035 2.561ZM1 6.998C0.998198 8.04072 1.26953 9.06573 1.787 9.971L1.805 9.821C1.859 9.416 1.973 8.888 2.337 8.499C2.751 8.055 3.26 7.971 3.585 7.918C3.617 7.913 3.648 7.908 3.676 7.902C3.85 7.872 3.955 7.844 4.036 7.799C4.13048 7.74493 4.2054 7.66231 4.25 7.563C4.264 7.536 4.283 7.473 4.256 7.318C4.233 7.185 4.189 7.046 4.133 6.867C4.11922 6.82237 4.10556 6.7777 4.092 6.733C3.962 6.308 3.758 5.618 4.172 4.989C4.533 4.442 5.112 4.303 5.486 4.212L5.6 4.184C5.998 4.081 6.233 3.984 6.396 3.637C6.608 3.185 6.516 2.575 6.294 1.987C6.17772 1.6812 6.03379 1.38665 5.864 1.107C4.49512 1.37095 3.26088 2.10333 2.37327 3.17835C1.48567 4.25336 1.00011 5.60391 1 6.998Z" fill="#516FF6"/>
</svg>
