<svg width="21" height="15" viewBox="0 0 21 15" fill="none" xmlns="http://www.w3.org/2000/svg">
<path d="M19.8471 1.27446C19.4872 0.817935 18.9112 0.4375 18.2633 0.285326C16.3916 -0.0951087 4.72945 -0.0951087 2.85775 0.285326C2.35383 0.361413 1.92189 0.589674 1.56195 0.970109C-0.093793 2.56793 0.410128 11.1658 0.842061 12.6114C0.986039 13.2201 1.202 13.6766 1.48996 13.9049C1.8499 14.2853 2.28184 14.5136 2.85775 14.6658C4.36951 14.9701 12.2883 15.1984 18.2633 14.7418C18.8393 14.6658 19.2712 14.3614 19.7031 13.981C21.1429 12.3832 21.0709 3.25272 19.8471 1.27446ZM8.76083 10.2527C8.76083 8.27446 8.76083 6.22011 8.76083 4.24185C10.9205 5.23098 12.3603 6.22011 14.232 7.28533C12.7202 8.19837 10.9205 9.1875 8.76083 10.2527Z" fill="white" fill-opacity="0.5"/>
</svg>
