<svg width="20" height="20" viewBox="0 0 20 20" fill="none" xmlns="http://www.w3.org/2000/svg">
<path d="M0 6.66667C0 4.89856 0.702379 3.20286 1.95262 1.95262C3.20286 0.702379 4.89856 0 6.66667 0L13.3333 0C15.1014 0 16.7971 0.702379 18.0474 1.95262C19.2976 3.20286 20 4.89856 20 6.66667V13.3333C20 15.1014 19.2976 16.7971 18.0474 18.0474C16.7971 19.2976 15.1014 20 13.3333 20H6.66667C4.89856 20 3.20286 19.2976 1.95262 18.0474C0.702379 16.7971 0 15.1014 0 13.3333L0 6.66667Z" fill="#516FF6"/>
<path d="M4.16699 7.50033C4.16699 7.27931 4.25479 7.06735 4.41107 6.91107C4.56735 6.75479 4.77931 6.66699 5.00033 6.66699H10.0003C10.6634 6.66699 11.2993 6.93038 11.7681 7.39922C12.2369 7.86807 12.5003 8.50395 12.5003 9.16699V12.5003C12.5003 12.7213 12.4125 12.9333 12.2562 13.0896C12.1 13.2459 11.888 13.3337 11.667 13.3337H6.66699C6.00395 13.3337 5.36807 13.0703 4.89923 12.6014C4.43038 12.1326 4.16699 11.4967 4.16699 10.8337V7.50033Z" fill="white"/>
<path d="M12.917 9.79355C12.9168 9.38955 13.0634 8.99923 13.3295 8.69522L14.7378 7.08522C15.1187 6.65189 15.8337 6.92022 15.8337 7.49689V12.5036C15.8337 13.0811 15.1187 13.3494 14.7387 12.9152L13.3295 11.3052C13.0636 11.0014 12.917 10.6114 12.917 10.2077V9.79272V9.79355Z" fill="white"/>
</svg>
