<svg width="120" height="36" viewBox="0 0 120 36" fill="none" xmlns="http://www.w3.org/2000/svg">
<path d="M23.1215 0.408989V0.327172H19.9723V0.408989C20.3867 0.899899 20.4696 1.88172 20.221 2.53626L14.9171 13.4999L12.5966 8.01809L15.0829 2.86354C15.5801 1.7999 16.3259 0.899899 17.1546 0.408989V0.327172H13.9227V0.408989C14.3371 0.899899 14.4198 1.88172 14.1713 2.53626L12.0994 6.79081L10.2762 2.53626C9.94475 1.71808 10.0276 0.899899 10.5249 0.408989V0.327172H6.04973V0.408989C6.96133 1.06353 7.54144 2.04535 8.12155 3.27263L10.7735 9.409L8.86741 13.418L4.14364 2.53626C3.81216 1.71808 3.89503 0.899899 4.39227 0.408989V0.327172H0V0.408989C0.911603 1.06353 1.49171 2.04535 2.07183 3.27263L8.03868 17.1817H8.2873L11.3536 10.7181L14.0884 17.1817H14.3371L21.0497 3.109C21.547 2.04535 22.3757 0.899899 23.1215 0.408989Z" fill="#131415"/>
<path d="M41.2705 8.5091C41.2705 3.76364 37.6241 0 31.6573 0C25.6904 0 22.1269 3.76364 22.1269 8.5091C22.1269 13.1728 25.7733 17.0182 31.6573 17.0182C37.6241 17.0182 41.2705 13.1728 41.2705 8.5091ZM24.8617 8.5091C24.8617 4.66364 27.0164 0.818183 31.6573 0.818183C36.2982 0.818183 38.5357 4.66364 38.5357 8.5091C38.5357 12.3546 36.3809 16.2 31.6573 16.2C27.0164 16.2 24.8617 12.2728 24.8617 8.5091Z" fill="#131415"/>
<path d="M44.0887 2.86354L44.2545 3.19081V14.809C44.2545 15.8726 44.0058 16.0363 43.5086 16.5272V16.609H46.0777V16.5272C45.6634 16.0363 45.3318 15.8726 45.3318 14.809V5.15444L52.7904 17.1817H53.0389L59.4202 4.41809V14.809C59.4202 15.8726 59.1716 16.0363 58.6743 16.5272V16.609H62.4036V16.5272C61.9893 16.0363 61.6578 15.8726 61.6578 14.809V2.12717C61.6578 1.06353 61.9064 0.899899 62.4036 0.408989V0.327172H58.6743V0.408989C59.0887 0.899899 59.4202 1.06353 59.4202 2.12717V2.209L53.6191 13.909L45.3318 0.327172H41.6854V0.408989C42.6799 0.981716 43.5915 1.96354 44.0887 2.86354Z" fill="#131415"/>
<path d="M66.1332 14.4001L66.5475 13.5001H74.0891L74.5034 14.4001C74.9178 15.2183 74.752 16.0364 74.2548 16.5274V16.6092H78.7299V16.5274C77.8184 15.8729 77.2382 14.6455 76.741 13.6638L70.6912 0.327372H67.3764V0.40919C68.2051 0.9001 68.7852 1.8001 69.1996 2.86374L69.9454 4.50011L65.1387 14.0729C64.6416 15.0546 63.9785 16.0364 63.1498 16.5274V16.6092H66.299V16.5274C65.8846 16.0364 65.7188 15.2183 66.1332 14.4001ZM73.6747 12.6001H67.0448L70.4426 5.64556L73.6747 12.6001Z" fill="#131415"/>
<path d="M80.2215 3.02717V14.809C80.2215 15.8726 79.9729 16.0363 79.4756 16.5272V16.609H82.0447V16.5272C81.6303 16.0363 81.2988 15.8726 81.2988 14.809V4.09081L95.7187 17.1817H95.9674V2.12717C95.9674 1.06353 96.2159 0.899899 96.7132 0.408989V0.327172H94.1442V0.408989C94.5585 0.899899 94.89 1.06353 94.89 2.12717V12.9272L81.0502 0.327172H76.6579V0.408989C77.8181 0.899899 79.6413 2.45444 80.0557 2.86354L80.2215 3.02717Z" fill="#131415"/>
<path d="M29.8341 19.3106C30.2484 19.8016 30.58 19.9652 30.58 21.0288V33.7106C30.58 34.7743 30.3313 34.938 29.8341 35.4288V35.5106H33.5634V35.4288C33.149 34.938 32.8175 34.7743 32.8175 33.7106V21.0288C32.8175 19.9652 33.0661 19.8016 33.5634 19.3106V19.2288H29.8341V19.3106Z" fill="#131415"/>
<path d="M51.1322 19.3091C51.5466 19.8 51.8782 19.9636 51.8782 21.0272V31.5L39.7787 19.2272H35.4692V19.3091C36.7953 20.0454 37.9555 21.2726 38.3698 21.6818L38.5356 21.8454V33.6272C38.5356 34.6909 38.2869 34.8545 37.7897 35.3454V35.4272H40.3588V35.3454C39.9445 34.8545 39.6129 34.6909 39.6129 33.6272V22.9909L52.7898 36H53.0383V21.0272C53.0383 19.9636 53.2869 19.8 53.7841 19.3091V19.2272H51.2151V19.3091H51.1322Z" fill="#131415"/>
<path d="M61.5746 26.1018C59.337 24.3018 58.094 23.1564 58.2596 21.6018C58.4254 20.5381 59.1712 19.72 60.4972 19.72C62.2376 19.72 63.6463 20.7836 64.5579 22.0927H64.6408L64.8895 19.6381H64.8066C64.6408 19.8018 64.3094 19.8836 63.9779 19.8836C63.3149 19.8836 62.4033 18.9018 60.4144 18.9018C58.4254 18.9018 56.105 20.129 56.105 22.829C56.105 25.12 58.094 26.5109 59.8343 27.9836C62.4862 30.1109 63.1492 30.8473 63.1492 32.8109C63.1492 34.2836 61.906 35.1018 60.663 35.1018C59.0056 35.1018 57.348 33.8746 56.1879 31.9109H56.105V35.1836H56.1879C56.2708 35.02 56.6851 34.8564 56.9337 34.8564C57.8453 34.8564 58.5912 35.8382 60.5801 35.8382C62.2376 35.8382 65.5524 34.8564 65.3868 31.2564C65.3039 29.129 63.3149 27.4927 61.5746 26.1018Z" fill="#131415"/>
<path d="M67.8722 19.3093C68.2865 19.8002 68.618 19.9638 68.618 21.0275V33.7093C68.618 34.7729 68.3694 34.9366 67.8722 35.4275V35.5093H71.6015V35.4275C71.187 34.9366 70.8555 34.7729 70.8555 33.7093V21.0275C70.8555 19.9638 71.1042 19.8002 71.6015 19.3093V19.2275H67.8722V19.3093Z" fill="#131415"/>
<path d="M87.1817 27.0002C87.5961 27.4912 87.9275 27.6548 87.9275 28.7184V31.9912C87.9275 32.5639 87.8448 32.8912 87.7619 33.0548C87.0161 34.3639 85.5243 35.0184 83.5353 35.0184C79.0602 35.0184 76.6569 31.5821 76.6569 27.3275C76.6569 23.1548 78.8944 19.6366 83.5353 19.6366C85.69 19.6366 87.679 20.6184 89.0878 22.2548H89.1707L89.5022 19.6366H89.4193C89.2536 19.8002 89.0049 19.9639 88.5906 19.8821C87.7619 19.8002 86.353 18.8184 83.5353 18.8184C77.5685 18.8184 74.0049 22.3366 74.0049 27.3275C74.0049 32.3184 77.8171 35.8367 83.5353 35.8367C86.8503 35.8367 87.679 34.6912 89.0049 34.6912C89.2536 34.6912 89.9165 34.8548 89.9994 35.1002H90.0823V28.7184C90.0823 27.6548 90.3309 27.4912 90.8281 27.0002V26.9184H87.2646V27.0002H87.1817Z" fill="#131415"/>
<path d="M104.171 23.4834C104.586 23.9743 104.917 24.1379 104.917 25.2016V28.8834H95.9669V21.0288C95.9669 19.9652 96.2155 19.8016 96.7127 19.3106V19.2288H92.9834V19.3106C93.3978 19.8016 93.7292 19.9652 93.7292 21.0288V33.7106C93.7292 34.7743 93.4806 34.938 92.9834 35.4288V35.5106H96.7127V35.4288C96.2983 34.938 95.9669 34.7743 95.9669 33.7106V29.8652H104.917V33.7106C104.917 34.7743 104.668 34.938 104.171 35.4288V35.5106H107.9V35.4288C107.486 34.938 107.155 34.7743 107.155 33.7106V25.2016C107.155 24.1379 107.403 23.9743 107.9 23.4834V23.4016H104.171V23.4834Z" fill="#131415"/>
<path d="M119.917 19.2272H103.674L103.011 21.6818H103.094C103.342 21.4363 104.088 20.2091 106.906 20.2091H112.127V33.7909C112.127 34.8545 111.878 35.0182 111.381 35.5091V35.5909H115.11V35.5091C114.696 35.0182 114.365 34.8545 114.365 33.7909V20.1272H117.762C118.84 20.1272 119.668 20.7818 119.917 21.0272H120L119.917 19.2272Z" fill="#131415"/>
</svg>
