<svg width="16" height="15" viewBox="0 0 16 15" fill="none" xmlns="http://www.w3.org/2000/svg">
<path d="M5.43747 7.49434C5.43747 6.12237 6.5459 5.01424 7.91822 5.01424C9.29055 5.01424 10.399 6.12237 10.399 7.49434C10.399 8.86631 9.29055 9.97443 7.91822 9.97443C6.5459 9.97443 5.43747 8.86631 5.43747 7.49434ZM4.06514 7.49434C4.06514 9.60506 5.75417 11.2936 7.86544 11.2936C9.9767 11.2936 11.6657 9.60506 11.6657 7.49434C11.6657 5.38362 9.9767 3.69504 7.86544 3.69504C5.75417 3.69504 4.06514 5.38362 4.06514 7.49434ZM10.9796 3.53674C10.9796 4.01165 11.4018 4.4338 11.8769 4.4338C12.3519 4.4338 12.7741 4.01165 12.7741 3.53674C12.7741 3.06183 12.3519 2.63968 11.8769 2.63968C11.349 2.63968 10.9796 3.00906 10.9796 3.53674ZM4.90966 13.5099C4.17071 13.4571 3.80124 13.3516 3.53733 13.246C2.85116 12.9822 2.37614 12.5073 2.11223 11.8213C1.68998 10.7132 1.79554 5.33085 1.84832 4.4338C1.9011 3.58951 2.05945 2.79799 2.64005 2.21754C3.37899 1.47879 4.32905 1.10941 10.874 1.42602C11.7185 1.47879 12.5102 1.63709 13.0908 2.21754C13.8298 2.95629 14.1992 3.90611 13.8826 10.4493C13.8298 11.1881 13.7242 11.5575 13.6186 11.8213C13.038 13.6154 11.4546 13.8265 4.90966 13.5099ZM4.80409 0.106821C3.59011 0.159589 2.53447 0.476191 1.68997 1.32048C0.845459 2.16477 0.528775 3.22013 0.475993 4.4338C0.423211 5.17255 0.264857 10.8715 0.845456 12.349C1.21493 13.3516 2.00666 14.1431 3.00951 14.5125C3.48455 14.6708 4.01236 14.8291 4.80409 14.8819C11.4018 15.1985 13.8826 15.0402 14.9382 12.349C15.0965 11.8741 15.2549 11.3464 15.3077 10.5549C15.6244 3.90611 15.2549 2.48137 14.0937 1.32048C13.1436 0.370655 12.088 -0.262555 4.80409 0.106821Z" fill="#516FF6"/>
</svg>
