<svg width="14" height="15" viewBox="0 0 14 15" fill="none" xmlns="http://www.w3.org/2000/svg">
<path d="M4.79302 8.11729C4.89425 8.11729 4.99133 8.13435 5.08926 8.14558V5.89989C4.99095 5.89396 4.89312 5.88543 4.79302 5.88543C2.14598 5.88543 0 7.92577 0 10.4427C0 12.9597 2.14598 15 4.79302 15C7.44007 15 9.58605 12.9596 9.58605 10.4427V4.2767C9.96914 4.83295 10.4919 5.28975 11.1071 5.60588C11.7223 5.92201 12.4106 6.08751 13.1099 6.08745C13.2394 6.08691 13.3687 6.08066 13.4977 6.06869H13.5V3.57258C11.4679 3.43206 9.83403 1.92667 9.62089 0H7.36131L7.3377 10.4721C7.3377 11.7569 6.14435 12.7691 4.79302 12.7691C3.44169 12.7691 2.34722 11.7276 2.34722 10.4436C2.34722 9.15964 3.44207 8.11729 4.79302 8.11729Z" fill="#516FF6"/>
</svg>
