<svg width="21" height="15" viewBox="0 0 21 15" fill="none" xmlns="http://www.w3.org/2000/svg">
<path d="M19.8461 1.27446C19.4862 0.817935 18.9103 0.4375 18.2624 0.285326C16.3907 -0.0951087 4.72848 -0.0951087 2.85677 0.285326C2.35285 0.361413 1.92092 0.589674 1.56097 0.970109C-0.0947696 2.56793 0.409152 11.1658 0.841085 12.6114C0.985062 13.2201 1.20103 13.6766 1.48898 13.9049C1.84893 14.2853 2.28086 14.5136 2.85677 14.6658C4.36853 14.9701 12.2873 15.1984 18.2624 14.7418C18.8383 14.6658 19.2702 14.3614 19.7021 13.981C21.1419 12.3832 21.0699 3.25272 19.8461 1.27446ZM8.75985 10.2527C8.75985 8.27446 8.75985 6.22011 8.75985 4.24185C10.9195 5.23098 12.3593 6.22011 14.231 7.28533C12.7192 8.19837 10.9195 9.1875 8.75985 10.2527Z" fill="#516FF6"/>
</svg>
