<svg width="20" height="20" viewBox="0 0 20 20" fill="none" xmlns="http://www.w3.org/2000/svg">
<path d="M7.50697 10.497V5.92089C7.50697 5.86566 7.46282 5.82089 7.40759 5.82089H2.73085C1.75746 5.82089 1.75556 10.597 2.73085 10.597H7.4076C7.46282 10.597 7.50697 10.5522 7.50697 10.497Z" stroke="#516FF6" stroke-width="1.5"/>
<path d="M9.64209 5.8209C12.6264 4.32874 16.3287 2 17.2839 2C18.2391 2 18.2391 14.4179 17.2839 14.4179C16.3287 14.4179 9.64209 10.597 9.64209 10.597" stroke="#516FF6" stroke-width="1.5" stroke-linecap="round"/>
<path d="M7.66959 13.4627H4.9938C4.92874 13.4627 4.88101 13.5238 4.89679 13.5869L5.80201 17.2078C5.81314 17.2523 5.85314 17.2836 5.89902 17.2836H9.48004C9.55438 17.2836 9.60273 17.2053 9.56948 17.1389L7.75903 13.518C7.74209 13.4841 7.70747 13.4627 7.66959 13.4627Z" stroke="#516FF6" stroke-width="1.5" stroke-linecap="round"/>
</svg>
