<svg width="22" height="20" viewBox="0 0 22 20" fill="none" xmlns="http://www.w3.org/2000/svg">
<path d="M4.47138 13.8032C4.47138 13.8032 12.5098 5.96849 13.5 5C14.4902 4.03151 15.5431 4.02156 16.5 4.5C17.4569 4.97844 18 6.5901 16.4155 8.16884C14.831 9.74758 11.3166 13.2506 7.66611 16.3687C4.01557 19.4869 1.86354 16.9213 1.34191 15.8819C0.820271 14.8425 0.822714 13.2835 1.86348 12.2441C2.90425 11.2047 10.7304 3.929 12.295 2.37006C13.8597 0.811122 17.5132 0.293729 19.5971 2.37006C21.681 4.4464 21.2413 7.48679 19.5971 9.12598C17.9529 10.7652 9.16558 19 9.16558 19" stroke="#8BB3FF" stroke-width="1.5" stroke-linecap="round"/>
</svg>
