<svg width="20" height="20" viewBox="0 0 20 20" fill="none" xmlns="http://www.w3.org/2000/svg">
<path d="M4.8099 7.5H2C1.72386 7.5 1.5 7.72386 1.5 8V12.5C1.5 12.7761 1.72386 13 2 13H4.8099C4.93236 13 5.05056 13.0449 5.14208 13.1263L8.66782 16.2603C8.99027 16.5469 9.5 16.318 9.5 15.8866V4.61342C9.5 4.182 8.99027 3.95309 8.66782 4.23972L5.14208 7.3737C5.05056 7.45506 4.93236 7.5 4.8099 7.5Z" stroke="#516FF6" stroke-width="1.5" stroke-linecap="round"/>
<path d="M12.5 6C12.5 6 14.5 7 14.5 10.25C14.5 13.5 12.5 14.5 12.5 14.5" stroke="#516FF6" stroke-width="1.5" stroke-linecap="round"/>
<path d="M15.5 3C15.5 3 18.5 5 18.5 10C18.5 15 15.5 17 15.5 17" stroke="#516FF6" stroke-width="1.5" stroke-linecap="round"/>
</svg>
