<svg width="20" height="20" viewBox="0 0 20 20" fill="none" xmlns="http://www.w3.org/2000/svg">
<path d="M15.5138 8.4C18.2921 10.3908 18.0982 14.0828 17.8961 15.5378C17.8693 15.7305 17.6144 15.7592 17.528 15.5849C17.0606 14.6416 15.9981 12.7938 14.6138 12.225C12.996 11.5602 10.346 11.6128 9.62494 11.6412C9.51928 11.6454 9.43885 11.7325 9.43885 11.8382V13.9824C9.43885 14.1409 9.26327 14.2364 9.1302 14.1503L2.03722 9.56071C1.91833 9.48378 1.91484 9.31106 2.03053 9.2294L9.12351 4.22259C9.25599 4.12907 9.43885 4.22382 9.43885 4.38598V6.53057C9.43885 6.62834 9.51063 6.71208 9.60721 6.72726C12.1817 7.132 13.1914 6.7358 15.5138 8.4Z" stroke="#8BB3FF" stroke-width="1.5"/>
</svg>
