<svg width="20" height="20" viewBox="0 0 20 20" fill="none" xmlns="http://www.w3.org/2000/svg">
<path d="M18.25 10C18.25 14.5563 14.5563 18.25 10 18.25C5.44365 18.25 1.75 14.5563 1.75 10C1.75 5.44365 5.44365 1.75 10 1.75C14.5563 1.75 18.25 5.44365 18.25 10Z" stroke="#516FF6" stroke-width="1.5"/>
<path d="M13.5042 10.4962L8.65131 13.124C8.23947 13.3468 7.71094 13.077 7.71094 12.6279V7.37223C7.71094 6.92382 8.23871 6.65335 8.65131 6.87684L13.5042 9.50468C13.5979 9.55459 13.6758 9.62673 13.7299 9.7138C13.7841 9.80086 13.8126 9.89974 13.8126 10.0004C13.8126 10.1011 13.7841 10.2 13.7299 10.287C13.6758 10.3741 13.5979 10.4463 13.5042 10.4962Z" fill="#516FF6"/>
</svg>
